<?xml version="1.0" encoding="UTF-8"?>
<svg width="25px" height="16px" viewBox="0 0 25 16" version="1.1" xmlns="http://www.w3.org/2000/svg" xmlns:xlink="http://www.w3.org/1999/xlink">
    <!-- Generator: Sketch 47.1 (45422) - http://www.bohemiancoding.com/sketch -->
    <title>bg/receipt</title>
    <desc>Created with Sketch.</desc>
    <defs></defs>
    <g id="Symbols" stroke="none" stroke-width="1" fill="none" fill-rule="evenodd">
        <g id="bg/receipt" transform="translate(0.000000, -483.000000)" fill="#FFFFFF">
            <path d="M345,481.755208 L345,0 L0,0 L0,481.755208 L6.76057062e-15,498 L12.516263,484.948351 L25.0639688,498 L37.6330512,485.806091 L49.8936829,498 L62.1543146,485.806091 L74.4149463,498 L86.675578,485.806091 L98.9362097,498 L111.196841,485.806091 L123.457473,498 L135.718105,485.806091 L147.978737,498 L160.239368,485.806091 L172.5,498 L184.760632,485.806091 L197.021263,498 L209.281895,485.806091 L221.542527,498 L233.803159,485.806091 L246.06379,498 L258.324422,485.806091 L270.585054,498 L282.845685,485.806091 L295.106317,498 L307.366949,485.806091 L319.627581,498 L332.31379,485.382829 L345,498 L345,481.755208 Z" id="Combined-Shape"></path>
        </g>
    </g>
</svg>