<?xml version="1.0" encoding="utf-8"?>
<!-- Generator: Adobe Illustrator 21.1.0, SVG Export Plug-In . SVG Version: 6.00 Build 0)  -->
<svg version="1.1" id="Layer_1" xmlns="http://www.w3.org/2000/svg" xmlns:xlink="http://www.w3.org/1999/xlink" x="0px" y="0px"
	 viewBox="0 0 222 69" style="enable-background:new 0 0 222 69;" xml:space="preserve">
<style type="text/css">
	.st0{fill:#1A9DD8;}
	.st1{fill:#FFFFFF;}
	.st2{fill:#363536;}
</style>
<g>
	<path class="st0" d="M58.5,5.4H18.7c-5.2,0-9.4,4.2-9.4,9.3v39.7c0,5.2,4.2,9.3,9.4,9.3h39.8c5.2,0,9.4-4.2,9.4-9.3V54v-9V14.8
		C67.9,9.6,63.7,5.4,58.5,5.4"/>
	<path class="st1" d="M57.6,42c-2.3-0.8-5.5-2-9-3.2c2.1-3.6,3.8-7.8,4.9-12.3H41.9v-4.1H56V20H41.9v-6.9h-5.8c-1,0-1,1-1,1V20H20.8
		v2.3h14.3v4.1H23.3v2.3h22.9c-0.8,2.9-2,5.6-3.3,8c-7.4-2.4-15.4-4.4-20.3-3.2c-3.2,0.8-5.2,2.2-6.4,3.6
		c-5.5,6.7-1.6,16.9,10.1,16.9c6.9,0,13.6-3.8,18.7-10.2c7.7,3.7,22.9,10,22.9,10v-9C67.9,45,66,44.8,57.6,42 M25.2,50.3
		c-9.1,0-11.8-7.2-7.3-11.1c1.5-1.3,4.2-2,5.7-2.1c5.4-0.5,10.4,1.5,16.3,4.4C35.8,46.9,30.5,50.3,25.2,50.3"/>
	<path class="st2" d="M154.2,14.6h17V18h6.1v-3.4V14l0,0c0-0.9-0.7-1.6-1.6-1.6h-9.8V9.2h-6.4v3.1h-11.4v1.1v1.1V18h6.1L154.2,14.6
		L154.2,14.6z"/>
	<polygon class="st2" points="117.4,9.4 111.2,24.1 116,24.1 116,41.6 121.2,41.6 121.2,18.4 119.3,18.4 123.2,9.4 	"/>
	<path class="st2" d="M178.1,41l-1.9-6.5c-0.1-0.4-0.5-0.7-0.9-0.7h-5.1l1.5,5h-6v-9.6h11.7v-2.4h-11.7v-4.5h11.7V20h-11.7h-5.8
		h-11.7v2.3h11.7v4.5h-11.7v2.3h11.7v9.6h-11.7V41L178.1,41L178.1,41z"/>
	<path class="st2" d="M129.7,20.8h-4.5l3.5,11.1h5.4l-3.3-10.4C130.6,21.1,130.2,20.8,129.7,20.8"/>
	<path class="st2" d="M142.2,9.7h-5.4v5.7h-13.4v2.3h13.4v20.4c0,0.5-0.4,0.8-0.9,0.9h-2.8v2.4h7c1.1,0,2-1,2-2.1V39V17.7h2.2v-2.3
		h-2.2L142.2,9.7L142.2,9.7z"/>
	<path class="st2" d="M110.4,39.6c-5-1.8-8.9-3.8-12-5.7c4.5-3.3,8.4-7.8,10-13.8H97.9v-3.7H110v-2.3H97.9V9.4h-5.4l0,0
		c-0.6,0-1.1,0.5-1.1,1.1l0,0v3.6h-12v2.3h12v3.7H81.3v2.3h20.2c0,0-1.1,4.4-6.7,9.1c-5-3.8-6.6-6.8-6.6-6.8h-5.4
		c2.2,3.8,5.3,6.8,8.7,9.3c-3.1,2-7.1,3.9-12.2,5.5v2.8c0,0,8-1.5,15.7-6c7.7,4.5,15.5,6,15.5,6L110.4,39.6L110.4,39.6z"/>
	<path class="st2" d="M91.2,57.3l0.9,2.7h2.5l-5-13.5h-1.9l-5,13.5h2.5l0.9-2.7H91.2z M88.8,50l1.9,5.6h-3.8L88.8,50z"/>
	<polygon class="st2" points="102.6,46.5 102.6,60 110.8,60 110.8,58.1 105.1,58.1 105.1,46.5 	"/>
	<rect x="119.7" y="46.5" class="st2" width="2.4" height="13.5"/>
	<path class="st2" d="M137.3,46.5H132V60h2.4v-5.2h2.8c2.6,0,4.5-1.7,4.5-4.2C141.8,48.1,139.9,46.5,137.3,46.5 M137.2,52.9h-2.7
		v-4.6h2.7c1.4,0,2.2,1.2,2.2,2.3C139.3,51.8,138.6,52.9,137.2,52.9"/>
	<path class="st2" d="M156,57.3l0.9,2.7h2.5l-5-13.5h-1.9l-5,13.5h2.5l0.9-2.7H156z M153.6,50l1.9,5.6h-3.8L153.6,50z"/>
	<polygon class="st2" points="173,46.5 170.4,52.1 167.7,46.5 165,46.5 169.1,54.4 169.1,60 171.6,60 171.6,54.4 171.6,54.4 
		175.7,46.5 	"/>
	<polygon class="st2" points="187.4,10.3 187.4,14.6 186.7,14.6 186.7,10.3 185.3,10.3 185.3,9.7 188.8,9.7 188.8,10.3 	"/>
	<polygon class="st2" points="193.3,14.6 193.3,11.3 192.1,13.6 191.6,13.6 190.4,11.3 190.4,14.6 189.7,14.6 189.7,9.7 190.4,9.7 
		191.8,12.6 193.3,9.7 194,9.7 194,14.6 	"/>
</g>
</svg>
