<?xml version="1.0" encoding="UTF-8"?>
<svg width="103px" height="29px" viewBox="0 0 103 29" version="1.1" xmlns="http://www.w3.org/2000/svg" xmlns:xlink="http://www.w3.org/1999/xlink">
    <!-- Generator: Sketch 47.1 (45422) - http://www.bohemiancoding.com/sketch -->
    <title>Alipay</title>
    <desc>Created with Sketch.</desc>
    <defs></defs>
    <g id="Symbols" stroke="none" stroke-width="1" fill="none" fill-rule="evenodd">
        <g id="Alipay" fill="#FFFFFF">
            <g>
                <path d="M61.4806202,5.58914729 C61.4806202,6.47111593 60.5869483,7.18604651 59.4845496,7.18604651 C58.382151,7.18604651 57.4883721,6.47111593 57.4883721,5.58914729 C57.4883721,4.70717864 58.382151,3.99224806 59.4845496,3.99224806 C60.5869483,3.99224806 61.4806202,4.70717864 61.4806202,5.58914729" id="Fill-1"></path>
                <path d="M51.1007752,6.43851364 L51.1007752,21.5581395 L55.0930233,21.5581395 L55.0930233,5.58914729 L52.0293628,5.58914729 C51.5165864,5.58914729 51.1007752,5.96948413 51.1007752,6.43851364" id="Fill-3"></path>
                <path d="M57.4883721,10.4495278 L57.4883721,21.5581395 L61.4806202,21.5581395 L61.4806202,9.58139535 L58.4169865,9.58139535 C57.9040803,9.58139535 57.4883721,9.97013546 57.4883721,10.4495278" id="Fill-5"></path>
                <path d="M69.6738629,20.6226365 C68.9251916,20.6226365 68.1323819,19.9104315 67.5234822,19.1980149 L67.5234822,12.8811484 C68.0912911,12.3134364 69.0564508,11.4992611 69.8915072,11.4992611 C71.1436715,11.4992611 72.3141798,13.2252451 72.3141798,15.7458354 C72.3141798,18.2665314 71.1708902,20.6226365 69.6738629,20.6226365 M70.8714848,9.58139535 C69.2098842,9.58139535 68.0404269,10.4476136 67.5234822,10.9220291 L67.5234822,9.85536106 L64.7243721,9.85536106 C64.2557694,9.85536106 63.875969,10.2377495 63.875969,10.709309 L63.875969,26.3488372 L67.5234822,26.3488372 L67.5234822,21.1612595 C68.0769987,21.5828916 68.8260904,21.8829846 69.837175,21.8829846 C73.2396149,21.8829846 75.8527132,18.9240492 75.8527132,15.1980097 C75.8527132,11.4718645 73.1579589,9.58139535 70.8714848,9.58139535" id="Fill-7"></path>
                <path d="M82.4814724,20.0376689 C81.0061206,20.0376689 80.0840893,19.1574561 80.0840893,17.530293 C80.0840893,15.9032329 81.7175036,14.8895515 83.0084491,14.8895515 C83.6582956,14.8895515 84.0596563,15.098817 84.2992929,15.3067437 L84.2992929,19.2843336 C83.8835906,19.6499304 83.2626307,20.0376689 82.4814724,20.0376689 M82.6922224,9.58139535 C79.583558,9.58139535 78.55605,10.2482233 78.55605,10.2482233 L78.9249642,11.0484168 C78.9249642,11.0484168 80.0840893,10.6216469 81.9809411,10.6216469 C84.0885429,10.6216469 84.2992929,11.7686939 84.2992929,13.182369 L84.2992929,13.841782 C83.8480926,13.7074896 82.9833259,13.5024464 81.9019098,13.5024464 C80.2948393,13.5024464 77.4496124,14.1427042 77.4496124,17.4769468 C77.4496124,20.8112923 79.978816,21.5581395 81.6384723,21.5581395 C82.6098346,21.5581395 83.6232045,21.0474369 84.2992929,20.6230357 L84.2992929,21.3180815 L87.8294574,21.3180815 L87.8294574,13.182369 C87.8294574,10.7817886 85.8009885,9.58139535 82.6922224,9.58139535" id="Fill-9"></path>
                <path d="M102.939258,9.60181061 L100.469173,9.60181061 L97.1557194,17.0295838 L97.0643094,16.8543424 L93.2870189,9.60076688 L89.5165153,9.60076688 L95.2778906,20.6661304 L95.4155359,20.9304016 L94.8124631,22.2822342 C93.8825625,24.0986288 91.2183108,23.9769304 91.2183108,23.9769304 L91.2183108,25.4975334 C91.2183108,25.4975334 92.3649656,25.5921992 93.195821,25.4975334 C93.9869099,25.4075643 95.7492566,24.8895636 96.6059868,23.0990534 L96.6060929,23.0991577 L98.3662126,19.3490539 L98.3658945,19.3486364 L102.939258,9.60181061 Z" id="Fill-11"></path>
                <path d="M43.6876904,17.7973193 L37.045603,17.7973193 L40.4259501,10.8216569 L43.6876904,17.7973193 Z M42.0368405,5.58914729 L40.4753431,5.58914729 L39.207024,8.20876908 L32.7364341,21.5581395 L35.2232554,21.5581395 L36.5041878,18.9146332 L44.2101328,18.9146332 L45.4462299,21.5581395 L49.503876,21.5581395 L42.4915529,6.56052329 L42.0368405,5.58914729 Z" id="Fill-14"></path>
                <path d="M28.7406116,19.2480349 C25.6975265,18.2193472 21.5920998,17.0315214 18.576126,16.01021 C20.0275312,13.2378155 20.989749,10.3107768 20.989749,10.3107768 L15.3881214,10.3107768 L15.3881214,8.34749 L22.2921985,8.34749 L22.2921985,7.15151241 L15.3881214,7.15151241 L15.3881214,3.99224806 L12.1742659,3.99224806 L12.1742659,7.15151241 L5.27008462,7.15151241 L5.27008462,8.34749 L12.1742659,8.34749 L12.1742659,10.3107768 L6.36843683,10.3107768 L6.36843683,11.3616522 L17.587953,11.3616522 C17.587953,11.3616522 16.9659669,13.2636414 15.9227564,15.1463389 C12.912894,14.2210665 10.1363155,13.5763525 7.90740162,13.5763525 C2.56157329,13.5763525 1.37586992,16.2486587 1.62854201,18.6923694 C1.83263934,20.6426913 3.29050724,23.4891408 7.74531206,23.4891408 C11.8145418,23.4891408 15.0998001,21.1681291 17.1214895,18.4053804 C20.8873538,20.1310191 25.8145096,22.2472544 28.7406116,23.8408065 L28.7406116,24.283799 C28.7142009,26.7529352 26.7065627,28.7442391 24.2340323,28.7442391 L4.50661107,28.7442391 C2.01753427,28.7442391 3.18201322e-05,26.7265245 3.18201322e-05,24.2375538 L3.18201322e-05,4.51342058 C3.18201322e-05,2.02444984 2.01753427,0.00684132841 4.50661107,0.00684132841 L24.2340323,0.00684132841 C26.7231091,0.00684132841 28.7406116,2.02444984 28.7406116,4.51342058 L28.7406116,19.2480349 Z M7.09737078,21.8386689 C3.33272349,21.8386689 2.74951379,19.7271685 2.68467797,18.466678 C2.62317775,17.3641508 3.37160414,15.2945526 7.62220739,15.2945526 C9.2032842,15.2945526 11.7109296,16.0973335 14.5263887,17.2674852 C12.9356178,19.3467292 10.3858604,21.8386689 7.09737078,21.8386689 Z" id="Combined-Shape"></path>
            </g>
        </g>
    </g>
</svg>