<?xml version="1.0" encoding="UTF-8"?>
<svg width="68px" height="68px" viewBox="0 0 68 68" version="1.1" xmlns="http://www.w3.org/2000/svg" xmlns:xlink="http://www.w3.org/1999/xlink">
    <g id="Static-QR-code" stroke="none" stroke-width="1" fill="none" fill-rule="evenodd">
        <g id="new-payment_select-copy-5" transform="translate(-154.000000, -90.000000)" fill="#C1C1C1">
            <g id="Group-3" transform="translate(15.000000, -182.000000)">
                <g id="Group-5" transform="translate(139.000000, 272.000000)">
                    <path d="M34,68 C15.2223185,68 0,52.7776815 0,34 C0,15.2223185 15.2223185,0 34,0 C52.7776815,0 68,15.2223185 68,34 C68,52.7776815 52.7776815,68 34,68 Z M34,64 C50.5685425,64 64,50.5685425 64,34 C64,17.4314575 50.5685425,4 34,4 C17.4314575,4 4,17.4314575 4,34 C4,50.5685425 17.4314575,64 34,64 Z" id="Combined-Shape"></path>
                    <path d="M48.8467726,49.8908921 C49.0514827,49.961599 49.2712568,50 49.5,50 C50.6045695,50 51.5,49.1045695 51.5,48 C51.5,47.2771082 51.1164762,46.6437933 50.5418039,46.2924304 C50.549675,46.2828486 50.5575655,46.2732834 50.5654754,46.2637347 C45.659608,43.5472724 40.0112381,42 34,42 C27.998904,42 22.3594528,43.5420557 17.4593624,46.2499951 C17.4687437,46.2582718 17.4781076,46.2665677 17.4874541,46.2748828 C16.8965782,46.6224423 16.5,47.2649083 16.5,48 C16.5,49.1045695 17.3954305,50 18.5,50 C18.7287432,50 18.9485173,49.961599 19.1532274,49.8908921 C19.3494054,49.7800087 19.5469561,49.6712549 19.7458477,49.5646623 C19.7666204,49.5481004 19.787056,49.5311334 19.8071424,49.5137733 C19.8092194,49.5187101 19.8112921,49.5236492 19.8133605,49.5285905 C24.0408501,47.2767649 28.8707108,46 34,46 C39.398301,46 44.4649422,47.4141998 48.8467726,49.8908921 Z" id="Combined-Shape-Copy"></path>
                    <circle id="Oval-2" cx="23" cy="28" r="4"></circle>
                    <circle id="Oval-2-Copy" cx="44" cy="28" r="4"></circle>
                </g>
            </g>
        </g>
    </g>
</svg>