<?xml version="1.0" encoding="UTF-8"?>
<svg width="513px" height="512px" viewBox="0 0 513 512" version="1.1" xmlns="http://www.w3.org/2000/svg" xmlns:xlink="http://www.w3.org/1999/xlink">
    <!-- Generator: Sketch 49.1 (51147) - http://www.bohemiancoding.com/sketch -->
    <title>ic_scanner</title>
    <desc>Created with Sketch.</desc>
    <defs>
        <polygon id="path-1" points="0.669770169 0.171 385.052603 0.171 385.052603 462.408891 0.669770169 462.408891"></polygon>
        <polygon id="path-3" points="0 511.829 512.053 511.829 512.053 0 0 0"></polygon>
        <polygon id="path-5" points="0 511.829 512.053 511.829 512.053 0 0 0"></polygon>
        <polygon id="path-7" points="0 511.829 512.053 511.829 512.053 0 0 0"></polygon>
        <polygon id="path-9" points="0 511.829 512.053 511.829 512.053 0 0 0"></polygon>
        <polygon id="path-11" points="0 511.829 512.053 511.829 512.053 0 0 0"></polygon>
        <polygon id="path-13" points="0 511.829 512.053 511.829 512.053 0 0 0"></polygon>
        <polygon id="path-15" points="0 511.829 512.053 511.829 512.053 0 0 0"></polygon>
        <polygon id="path-17" points="0 511.829 512.053 511.829 512.053 0 0 0"></polygon>
        <polygon id="path-19" points="0 511.829 512.053 511.829 512.053 0 0 0"></polygon>
        <polygon id="path-21" points="0 511.829 512.053 511.829 512.053 0 0 0"></polygon>
    </defs>
    <g id="Page-1" stroke="none" stroke-width="1" fill="none" fill-rule="evenodd">
        <g id="ic_scanner" transform="translate(0.000000, -1.000000)">
            <g id="Group-3" transform="translate(127.000000, 0.829000)">
                <g id="Fill-1-Clipped">
                    <mask id="mask-2" fill="white">
                        <use xlink:href="#path-1"></use>
                    </mask>
                    <g id="path-1"></g>
                    <path d="M367.7279,381.0087 C365.4039,381.5277 363.7449,381.7317 362.2019,382.2707 C355.2749,384.6867 349.5759,382.3877 345.2769,377.1177 C338.7699,369.1407 331.8259,361.2997 326.7059,352.4517 C310.7929,324.9587 295.3499,297.1817 280.3049,269.2017 C267.9219,246.1747 259.3999,221.7907 257.2659,195.4387 C256.0419,180.3317 255.9489,165.7267 269.7279,154.5277 L179.7479,154.5277 C180.5559,155.4527 180.9089,155.9637 181.3619,156.3607 C193.7509,167.1917 202.4989,180.1547 205.4459,196.6707 C205.7949,198.6297 207.1789,200.6157 208.5719,202.1427 C216.4279,210.7537 224.2849,219.3737 232.4289,227.7097 C241.5399,237.0357 247.8229,247.8517 249.7829,260.7317 C251.5329,272.2307 252.5109,283.8487 253.7049,295.4277 C254.8299,306.3427 257.0099,316.9507 264.4949,325.4347 C270.1009,331.7887 276.5519,337.3957 282.2109,343.7087 C286.7379,348.7577 291.5579,353.8917 294.6339,359.8247 C302.2219,374.4557 299.2849,388.7937 290.2999,401.7397 C283.6859,411.2727 281.8049,421.1687 283.3969,432.4477 C284.9279,443.2867 292.0499,447.5497 302.4619,444.0767 C325.7709,436.3017 346.5949,423.9667 364.4319,406.9107 C365.9809,405.4297 367.4529,403.0757 367.5799,401.0417 C367.9809,394.5857 367.7279,388.0887 367.7279,381.0087 M17.7779,29.2827 C18.5589,36.2227 18.9599,41.5267 19.7769,46.7647 C25.2589,81.8937 41.0779,111.2297 68.7519,133.9227 C71.5929,136.2527 74.4949,137.2857 78.2489,137.2797 C139.0669,137.1747 199.8859,137.2607 260.7049,137.1897 C283.3379,137.1627 305.0989,132.9607 325.0989,121.9107 C338.8869,114.2927 350.8809,104.6487 357.1259,89.5187 C361.6799,78.4867 360.5539,74.4917 351.2499,67.1587 C339.0609,57.5527 325.0499,51.3747 310.6279,46.1637 C258.2829,27.2477 203.9389,19.2617 148.5759,17.4707 C118.4079,16.4957 88.2459,17.6427 58.2979,21.5087 C44.8409,23.2447 31.5909,26.5807 17.7779,29.2827 M201.5279,220.2477 C196.2839,220.9507 191.5959,222.0517 186.8949,222.1097 C177.9399,222.2177 168.6919,214.9177 167.8439,206.0607 C166.2929,189.8827 156.7839,178.7667 146.1439,167.9027 C136.3349,157.8877 125.4949,152.4257 110.7949,153.9497 C98.2669,155.2497 85.4909,154.4077 72.8349,154.0827 C69.7599,154.0037 66.2309,152.9217 63.7499,151.1337 C32.0219,128.2787 12.9169,97.1277 4.9529,59.1577 C2.6409,48.1377 2.3189,36.7117 0.7859,25.5117 C0.1719,21.0247 2.0089,18.3967 5.9109,17.2397 C18.6259,13.4727 31.2049,8.7357 44.2029,6.5227 C79.4529,0.5217 115.1459,-0.5333 150.8079,0.5407 C206.5039,2.2177 261.1569,10.5477 313.9019,29.2187 C330.2479,35.0057 346.1449,41.8917 360.0389,52.5467 C363.8459,55.4657 367.3909,58.8337 370.5969,62.4077 C378.9439,71.7167 377.5219,82.3577 373.9349,92.9937 C368.4829,109.1517 357.4779,121.1177 343.6259,130.3127 C336.7449,134.8807 332.5799,140.6627 330.3739,148.2657 C329.1699,152.4167 328.0699,156.5987 326.9529,160.7747 C324.4279,170.2127 326.8119,178.5917 331.4809,186.9947 C339.9599,202.2537 348.1899,217.6847 355.7399,233.4197 C366.0809,254.9677 369.8019,278.4267 373.6499,301.7377 C377.4979,325.0507 381.3689,348.3837 384.2029,371.8317 C385.5529,382.9937 385.0489,394.4767 384.3719,405.7527 C383.9519,412.7417 378.4669,417.5727 373.4779,421.9877 C354.3119,438.9467 332.6459,451.8227 308.4529,460.1697 C287.5139,467.3927 270.1069,456.6697 266.6629,434.7977 C264.3229,419.9407 266.4659,406.1597 275.4259,393.4647 C284.9169,380.0157 283.9979,370.9047 272.8819,358.5637 C268.8769,354.1177 264.4899,349.9907 260.0579,345.9597 C245.2199,332.4637 238.1639,315.4737 236.5199,295.7317 C235.5409,283.9767 234.5849,272.1047 232.0199,260.6427 C230.5639,254.1407 226.7029,247.7007 222.4589,242.4087 C215.9239,234.2617 208.1289,227.1247 201.5279,220.2477" id="Fill-1" fill="#AAAAAA" fill-rule="nonzero" mask="url(#mask-2)"></path>
                </g>
            </g>
            <g id="Fill-4-Clipped" transform="translate(0.000000, 1.000000)">
                <mask id="mask-4" fill="white">
                    <use xlink:href="#path-3"></use>
                </mask>
                <g id="path-3"></g>
                <polygon id="Fill-4" fill="#AAAAAA" fill-rule="nonzero" mask="url(#mask-4)" points="246.983 511.822 289.39 511.822 289.39 273.437 246.983 273.437"></polygon>
            </g>
            <g id="Fill-6-Clipped" transform="translate(0.000000, 1.000000)">
                <mask id="mask-6" fill="white">
                    <use xlink:href="#path-5"></use>
                </mask>
                <g id="path-3"></g>
                <polygon id="Fill-6" fill="#AAAAAA" fill-rule="nonzero" mask="url(#mask-6)" points="43.08 511.807 84.476 511.807 84.476 273.251 43.08 273.251"></polygon>
            </g>
            <g id="Fill-7-Clipped" transform="translate(0.000000, 1.000000)">
                <mask id="mask-8" fill="white">
                    <use xlink:href="#path-7"></use>
                </mask>
                <g id="path-3"></g>
                <polygon id="Fill-7" fill="#AAAAAA" fill-rule="nonzero" mask="url(#mask-8)" points="93.939 511.686 127.357 511.686 127.357 273.306 93.939 273.306"></polygon>
            </g>
            <g id="Fill-8-Clipped" transform="translate(0.000000, 1.000000)">
                <mask id="mask-10" fill="white">
                    <use xlink:href="#path-9"></use>
                </mask>
                <g id="path-3"></g>
                <polygon id="Fill-8" fill="#AAAAAA" fill-rule="nonzero" mask="url(#mask-10)" points="179.058 511.65 212.492 511.65 212.492 273.275 179.058 273.275"></polygon>
            </g>
            <g id="Fill-9-Clipped" transform="translate(0.000000, 1.000000)">
                <mask id="mask-12" fill="white">
                    <use xlink:href="#path-11"></use>
                </mask>
                <g id="path-3"></g>
                <polygon id="Fill-9" fill="#AAAAAA" fill-rule="nonzero" mask="url(#mask-12)" points="0 511.829 16.386 511.829 16.386 273.281 0 273.281"></polygon>
            </g>
            <g id="Fill-10-Clipped" transform="translate(0.000000, 1.000000)">
                <mask id="mask-14" fill="white">
                    <use xlink:href="#path-13"></use>
                </mask>
                <g id="path-3"></g>
                <polygon id="Fill-10" fill="#AAAAAA" fill-rule="nonzero" mask="url(#mask-14)" points="137.055 511.651 153.496 511.651 153.496 273.278 137.055 273.278"></polygon>
            </g>
            <g id="Fill-11-Clipped" transform="translate(0.000000, 1.000000)">
                <mask id="mask-16" fill="white">
                    <use xlink:href="#path-15"></use>
                </mask>
                <g id="path-3"></g>
                <polygon id="Fill-11" fill="#AAAAAA" fill-rule="nonzero" mask="url(#mask-16)" points="221.965 511.804 238.41 511.804 238.41 273.431 221.965 273.431"></polygon>
            </g>
            <g id="Fill-12-Clipped" transform="translate(0.000000, 1.000000)">
                <mask id="mask-18" fill="white">
                    <use xlink:href="#path-17"></use>
                </mask>
                <g id="path-3"></g>
                <polygon id="Fill-12" fill="#AAAAAA" fill-rule="nonzero" mask="url(#mask-18)" points="298.977 511.816 315.398 511.816 315.398 273.443 298.977 273.443"></polygon>
            </g>
            <g id="Fill-13-Clipped" transform="translate(0.000000, 1.000000)">
                <mask id="mask-20" fill="white">
                    <use xlink:href="#path-19"></use>
                </mask>
                <g id="path-3"></g>
                <polygon id="Fill-13" fill="#AAAAAA" fill-rule="nonzero" mask="url(#mask-20)" points="162.047 511.654 170.5 511.654 170.5 273.271 162.047 273.271"></polygon>
            </g>
            <g id="Fill-14-Clipped" transform="translate(0.000000, 1.000000)">
                <mask id="mask-22" fill="white">
                    <use xlink:href="#path-21"></use>
                </mask>
                <g id="path-3"></g>
                <polygon id="Fill-14" fill="#AAAAAA" fill-rule="nonzero" mask="url(#mask-22)" points="25.962 511.814 33.412 511.814 33.412 273.426 25.962 273.426"></polygon>
            </g>
        </g>
    </g>
</svg>