<svg xmlns="http://www.w3.org/2000/svg" xmlns:xlink="http://www.w3.org/1999/xlink" viewBox="0 0 24 23"><defs><style>.cls-1,.cls-10,.cls-11,.cls-12,.cls-13,.cls-2,.cls-3,.cls-4,.cls-5,.cls-6,.cls-7,.cls-8,.cls-9{fill:none;stroke-linecap:round;stroke-linejoin:round;}.cls-1{stroke:url(#linear-gradient);}.cls-2{stroke:url(#linear-gradient-2);}.cls-3{stroke:url(#linear-gradient-3);}.cls-4{stroke:url(#linear-gradient-4);}.cls-5{stroke:url(#linear-gradient-5);}.cls-6{stroke:url(#linear-gradient-6);}.cls-7{stroke:url(#linear-gradient-7);}.cls-8{stroke:url(#linear-gradient-8);}.cls-9{stroke:url(#linear-gradient-9);}.cls-10{stroke:url(#linear-gradient-10);}.cls-11{stroke:url(#linear-gradient-11);}.cls-12{stroke:url(#linear-gradient-12);}.cls-13{stroke:url(#linear-gradient-13);}</style><linearGradient id="linear-gradient" x1="3.4" y1="14.9" x2="10.6" y2="22.1" gradientUnits="userSpaceOnUse"><stop offset="0" stop-color="#6bc274"/><stop offset="1" stop-color="#4e75ff"/></linearGradient><linearGradient id="linear-gradient-2" x1="-2.1" y1="2.4" x2="16.1" y2="20.6" xlink:href="#linear-gradient"/><linearGradient id="linear-gradient-3" x1="6.4" y1="19.9" x2="7.6" y2="21.1" xlink:href="#linear-gradient"/><linearGradient id="linear-gradient-4" x1="19.65" y1="3.15" x2="23.85" y2="7.35" xlink:href="#linear-gradient"/><linearGradient id="linear-gradient-5" x1="21.4" y1="11.4" x2="22.1" y2="12.1" xlink:href="#linear-gradient"/><linearGradient id="linear-gradient-6" x1="13.65" y1="6.65" x2="17.35" y2="10.35" xlink:href="#linear-gradient"/><linearGradient id="linear-gradient-7" x1="14.9" y1="5.4" x2="16.1" y2="6.6" xlink:href="#linear-gradient"/><linearGradient id="linear-gradient-8" x1="14.9" y1="10.4" x2="16.1" y2="11.6" xlink:href="#linear-gradient"/><linearGradient id="linear-gradient-9" x1="11.65" y1="2.65" x2="23.35" y2="14.35" xlink:href="#linear-gradient"/><linearGradient id="linear-gradient-10" x1="8.4" y1="2.9" x2="9.6" y2="4.1" xlink:href="#linear-gradient"/><linearGradient id="linear-gradient-11" x1="8.4" y1="12.9" x2="9.6" y2="14.1" xlink:href="#linear-gradient"/><linearGradient id="linear-gradient-12" x1="5.4" y1="2.9" x2="6.6" y2="4.1" xlink:href="#linear-gradient"/><linearGradient id="linear-gradient-13" x1="5.4" y1="12.9" x2="6.6" y2="14.1" xlink:href="#linear-gradient"/></defs><title>Asset 2</title><g id="Layer_2" data-name="Layer 2"><g id="icons"><line class="cls-1" x1="0.5" y1="18.5" x2="13.5" y2="18.5"/><polyline class="cls-2" points="13.5 15.5 13.5 22.5 0.5 22.5 0.5 0.5 13.5 0.5 13.5 1.5"/><line class="cls-3" x1="6.5" y1="20.5" x2="7.5" y2="20.5"/><line class="cls-4" x1="23.5" y1="7" x2="20" y2="3.5"/><line class="cls-5" x1="23.5" y1="10" x2="20" y2="13.5"/><polyline class="cls-6" points="16.5 6.5 14.5 6.5 14 7.5 14.5 8.5 16.5 8.5 17 9.5 16.5 10.5 14.5 10.5"/><line class="cls-7" x1="15.5" y1="6.5" x2="15.5" y2="5.5"/><line class="cls-8" x1="15.5" y1="11.5" x2="15.5" y2="10.5"/><polyline class="cls-9" points="11.5 3.5 23.5 3.5 23.5 13.5 11.5 13.5"/><line class="cls-10" x1="9.5" y1="3.5" x2="8.5" y2="3.5"/><line class="cls-11" x1="9.5" y1="13.5" x2="8.5" y2="13.5"/><line class="cls-12" x1="6.5" y1="3.5" x2="5.5" y2="3.5"/><line class="cls-13" x1="6.5" y1="13.5" x2="5.5" y2="13.5"/></g></g></svg>