<svg xmlns="http://www.w3.org/2000/svg" viewBox="0 0 274.07 52.87"><defs><style>.cls-1{fill:#fff;}</style></defs><title>Asset 1</title><g id="Layer_2" data-name="Layer 2"><g id="Layer_1-2" data-name="Layer 1"><path class="cls-1" d="M107.63,28.75,107,30.84c-.75,2.65-1.41,5-1.92,7.29-.5-2.8-1.35-6.07-2.26-9.47L98.49,12.2H96.22l-4.8,16.59c-1.1,3.58-2.06,6.77-2.57,9.37-.49-2.25-1.18-5-1.91-7.86L82.29,12.2H79.8l7.8,29.56h2.22l5-16.94c1.2-4,2-6.69,2.46-9.13a89.79,89.79,0,0,0,2.14,9.12l4.41,16.94h2.26L115,12.2h-2.5Z"/><path class="cls-1" d="M130.52,39A12.13,12.13,0,0,1,125,40.06c-4.88,0-7.69-3.25-7.75-8.91h15.3l0-.14a5.53,5.53,0,0,0,.09-1.3,12.33,12.33,0,0,0-1.52-5.92,7.35,7.35,0,0,0-6.76-3.66c-5.7,0-9.54,4.6-9.54,11.44,0,6.34,4,10.62,9.88,10.62a13.85,13.85,0,0,0,6.62-1.36l.12-.07Zm-6.34-16.79a5.58,5.58,0,0,1,4.13,1.56,7.89,7.89,0,0,1,1.89,5.36H117.41c.46-3.24,2.48-6.92,6.77-6.92"/><path class="cls-1" d="M150.73,40.06c-7.62,0-12.17-4.81-12.17-12.86,0-8.35,4.68-13.34,12.52-13.34A13.88,13.88,0,0,1,156.87,15L158,13.1l-.09-.05A14.58,14.58,0,0,0,151,11.73c-9,0-15,6.2-15,15.43,0,11.09,7.55,15,14,15a19.09,19.09,0,0,0,8-1.49l.11-.06-1.06-1.83a15.82,15.82,0,0,1-6.32,1.24"/><path class="cls-1" d="M171.36,20.13a7.87,7.87,0,0,0-4.29,1.24A7.55,7.55,0,0,0,164.43,24V11.72H162v30h2.43V28.89a5.87,5.87,0,0,1,.25-2,6.72,6.72,0,0,1,6.12-4.56c4.82,0,5.54,4.37,5.54,7V41.76h2.43V29.06c0-8.5-6.17-8.93-7.41-8.93"/><path class="cls-1" d="M210.07,39.93a8.73,8.73,0,0,1-1.84.17c-1.95,0-2.85-1.31-2.85-4.11V22.65h5.94v-2h-5.94V15.93h-2.43v4.67h-3.51v2h3.51v13c0,2.4.44,4.07,1.33,5.09A4.5,4.5,0,0,0,208,42.23a7.4,7.4,0,0,0,3-.54l.12,0Z"/><path class="cls-1" d="M227.69,12a36.18,36.18,0,0,0-6.31.56l-.15,0V41.76h2.44V29.33a13.41,13.41,0,0,0,3.37.29c3.75,0,6.84-1.18,8.71-3.31a8.46,8.46,0,0,0,2.08-6,7.79,7.79,0,0,0-2.31-5.85c-1.69-1.64-4.4-2.52-7.84-2.52m7.71,8.58c0,4.43-3,7-8.19,7a12.62,12.62,0,0,1-3.54-.38V14.39a20.4,20.4,0,0,1,3.94-.32c5,0,7.79,2.37,7.79,6.49"/><path class="cls-1" d="M271.47,20.61l-5.11,13.59c-.47,1.22-.87,2.42-1.23,3.48-.09.25-.17.5-.24.73-.42-1.35-.93-2.85-1.41-4.09L258,20.72l0-.11h-2.59l7.81,19.53a2.67,2.67,0,0,1,.25.84,2.56,2.56,0,0,1-.25.84A16.23,16.23,0,0,1,259.77,47a10.67,10.67,0,0,1-3.58,2.26l-.14.05,1.12,1.94a12.28,12.28,0,0,0,3.49-2.13c2.7-2.35,4.44-6,7.07-12.75l6.34-15.76Z"/><path class="cls-1" d="M197.7,41.55a31.08,31.08,0,0,1-.3-4.91V28.49c0-5.47-2.55-8.37-7.37-8.37a11.75,11.75,0,0,0-6.21,1.8h0l1,1.72a9,9,0,0,1,5-1.44h.07a4.87,4.87,0,0,1,3.58,1.26c1,1,1.49,2.53,1.49,4.68v.38c-5.1,0-8.71,1-10.79,3.06a6.44,6.44,0,0,0-1.9,4.74c0,2.84,2,5.9,6.29,5.9A8.15,8.15,0,0,0,195.18,39l.28,2.78h2.27ZM195,34.91a3.35,3.35,0,0,1-.21,1.2,6,6,0,0,1-6,4,3.82,3.82,0,0,1-4-4.15,4.3,4.3,0,0,1,1.29-3.22c1.48-1.43,4.2-2.17,8.09-2.17l.79,0Z"/><path class="cls-1" d="M253.57,41.55a31.08,31.08,0,0,1-.3-4.91V28.49c0-5.47-2.54-8.37-7.37-8.37a11.82,11.82,0,0,0-6,1.65l1,1.72a9.1,9.1,0,0,1,4.76-1.28h.07a4.87,4.87,0,0,1,3.58,1.26c1,1,1.49,2.53,1.49,4.68v.38c-5.08,0-8.71,1-10.79,3.06a6.44,6.44,0,0,0-1.9,4.74c0,2.84,2,5.9,6.29,5.9A8.16,8.16,0,0,0,251,39l.28,2.78h2.27Zm-2.74-6.64a3.36,3.36,0,0,1-.21,1.2,6,6,0,0,1-6,4,3.82,3.82,0,0,1-4-4.15A4.3,4.3,0,0,1,242,32.77c1.48-1.43,4.2-2.17,8.09-2.17l.79,0"/><path class="cls-1" d="M21.8,33.45a2,2,0,0,1-.9.21,2,2,0,0,1-1.74-1L19,32.35l-5.46-12a1,1,0,0,1-.09-.42,1,1,0,0,1,1-1,1,1,0,0,1,.6.2l6.44,4.58a3,3,0,0,0,2.66.3L54.44,10.57C49,4.18,40.08,0,30,0,13.42,0,0,11.18,0,25c0,7.52,4,14.3,10.35,18.87a2,2,0,0,1,.84,1.63,2.44,2.44,0,0,1-.1.64l-1.35,5a3.05,3.05,0,0,0-.16.73,1,1,0,0,0,1,1,1.13,1.13,0,0,0,.58-.18l6.56-3.79a3.13,3.13,0,0,1,1.59-.46,3,3,0,0,1,.88.13A35.41,35.41,0,0,0,30,49.94c16.55,0,30-11.18,30-25A21.61,21.61,0,0,0,56.52,13.4L22,33.32Z"/></g></g></svg>