<svg xmlns="http://www.w3.org/2000/svg" viewBox="0 0 980 346"><defs><style>.cls-1{fill:#fff;}</style></defs><title>Asset 1</title><g id="Layer_2" data-name="Layer 2"><g id="Layer_1-2" data-name="Layer 1"><path class="cls-1" d="M84.4,188c-8.7.9-25,4.7-33.9,12.5-26.7,23.2-10.7,65.6,43.3,65.6,31.4,0,62.8-20,87.4-52C146.1,197,116.4,184.8,84.4,188"/><path class="cls-1" d="M285.8,217.3c50,16.7,61.3,17.6,61.3,17.6V55.4A55.5,55.5,0,0,0,291.5,0H55.6A55.5,55.5,0,0,0,0,55.4V290.6A55.5,55.5,0,0,0,55.6,346H291.5a55.5,55.5,0,0,0,55.6-55.4v-2.3s-90.3-37.5-135.9-59.4c-30.6,37.5-70,60.3-111,60.3-69.3,0-92.8-60.4-60-100.2,7.2-8.7,19.3-16.9,38.2-21.6,29.5-7.2,76.5,4.5,120.6,19a239.92,239.92,0,0,0,19.5-47.6H82.8V125.1h70V100.5H68.1V86.8h84.8V51.7s0-5.9,6-5.9H193v41h83.8v13.7H193v24.6h68.4a277,277,0,0,1-29,73c20.8,7.4,39.5,14.5,53.4,19.2"/><path class="cls-1" d="M841.1,54.2h99.4V73.9H976V50.5a9.52,9.52,0,0,0-9.2-9.6H909.4V22.6H872.3V40.9H805.7V74h35.5V54.2Z"/><path class="cls-1" d="M626.1,24.2l-36.4,86h27.9V212.6h30.5V76.8h-11l23-52.6h-34Z"/><path class="cls-1" d="M980,208l-11.2-37.7a5.7,5.7,0,0,0-5.5-4.1H933.8l8.6,28.9H907.7v-56h68.2V125.8H907.7V99.4h68.2V86H805.7V99.3h68.2v26.4H805.7V139h68.2v56H805.7v13.3H980l-.1-.5.1.2Z"/><path class="cls-1" d="M704.2,94.8a7,7,0,0,0-6.3-4H671.5l20.6,64.8h31.3Z"/><path class="cls-1" d="M771.1,25.8H739.4V58.9H661.2V72.2h78.2V191.3a5.47,5.47,0,0,1-5.1,5H718.2v13.8h41.1a12.65,12.65,0,0,0,11.9-12.4V72.3h12.9V59H771.2V25.8Z"/><path class="cls-1" d="M573.2,86.2H512.3V64.4h70.6V50.8H512.3V23.1H480.8a6.3,6.3,0,0,0-6.2,6.5h0V50.8H404.5V64.4h70.1V86.2H415.4V99.8H533.3s-6.5,25.5-38.9,52.9c-29-21.9-38.7-39.4-38.7-39.4H424c12.8,22.2,31,39.9,50.6,54-18,11.7-41.3,23-71.5,32v16.3s46.5-8.8,91.5-35.3c45,26.3,90.3,35.3,90.3,35.3V200.2C556,189.6,533,178,515,166.8c26.1-19.3,49-45.5,58.2-80.6"/><path class="cls-1" d="M473.2,303.6l5.3,15.9h14.8l-29.1-79H452.9l-29,79h14.8l5.5-15.9Zm-14.3-42.7,10.9,32.7H447.6Z"/><path class="cls-1" d="M539.8,240.5v79h47.8V308.7H554V240.5Z"/><path class="cls-1" d="M639.7,240.5h14.2v79H639.7Z"/><path class="cls-1" d="M742.2,240.5H711.5v79h14.2V289.1h16.5c15.3,0,26-10,26-24.3s-10.7-24.3-26-24.3m-.8,37.8H725.7v-27h15.7c7.9,0,12.6,6.9,12.6,13.6,0,6.5-4.4,13.4-12.6,13.4"/><path class="cls-1" d="M851.6,303.6l5.3,15.9h14.8l-29.1-79H831.3l-29,79h14.8l5.5-15.9Zm-14.3-42.7,10.9,32.7H826Z"/><path class="cls-1" d="M950.7,240.5l-15.5,33.6-15.7-33.6H904.1L928,287v32.4h14.1V287l.1-.2L966,240.4H950.7Z"/></g></g></svg>