<svg xmlns="http://www.w3.org/2000/svg" xmlns:xlink="http://www.w3.org/1999/xlink" viewBox="0 0 23 24"><defs><style>.cls-1,.cls-10,.cls-11,.cls-12,.cls-13,.cls-2,.cls-3,.cls-4,.cls-5,.cls-6,.cls-7,.cls-8,.cls-9{fill:none;}.cls-1,.cls-10,.cls-11,.cls-12,.cls-13,.cls-5,.cls-7,.cls-8,.cls-9{stroke-linecap:round;}.cls-1,.cls-11,.cls-12,.cls-13,.cls-2,.cls-3,.cls-4,.cls-5,.cls-6,.cls-7,.cls-8,.cls-9{stroke-linejoin:round;}.cls-1{stroke:url(#linear-gradient);}.cls-2{stroke:url(#linear-gradient-2);}.cls-3{stroke:url(#linear-gradient-3);}.cls-4{stroke:url(#linear-gradient-4);}.cls-5{stroke:url(#linear-gradient-5);}.cls-6{stroke:url(#linear-gradient-6);}.cls-7{stroke:url(#linear-gradient-7);}.cls-8{stroke:url(#linear-gradient-8);}.cls-9{stroke:url(#linear-gradient-9);}.cls-10{stroke-miterlimit:10;stroke:url(#linear-gradient-10);}.cls-11{stroke:url(#linear-gradient-11);}.cls-12{stroke:url(#linear-gradient-12);}.cls-13{stroke:url(#linear-gradient-13);}</style><linearGradient id="linear-gradient" x1="2.77" y1="-0.98" x2="19.23" y2="15.48" gradientUnits="userSpaceOnUse"><stop offset="0" stop-color="#6bc274"/><stop offset="1" stop-color="#4e75ff"/></linearGradient><linearGradient id="linear-gradient-2" x1="4.15" y1="3.15" x2="6.85" y2="5.85" xlink:href="#linear-gradient"/><linearGradient id="linear-gradient-3" x1="8.15" y1="3.15" x2="10.85" y2="5.85" xlink:href="#linear-gradient"/><linearGradient id="linear-gradient-4" x1="4.15" y1="7.15" x2="6.85" y2="9.85" xlink:href="#linear-gradient"/><linearGradient id="linear-gradient-5" x1="3.15" y1="15.15" x2="10.35" y2="22.35" xlink:href="#linear-gradient"/><linearGradient id="linear-gradient-6" x1="8.15" y1="7.15" x2="10.85" y2="9.85" xlink:href="#linear-gradient"/><linearGradient id="linear-gradient-7" x1="7.15" y1="18.15" x2="9.85" y2="20.85" xlink:href="#linear-gradient"/><linearGradient id="linear-gradient-8" x1="9.15" y1="13.15" x2="11.85" y2="15.85" xlink:href="#linear-gradient"/><linearGradient id="linear-gradient-9" x1="12.02" y1="14.27" x2="21.98" y2="24.23" xlink:href="#linear-gradient"/><linearGradient id="linear-gradient-10" x1="13.4" y1="17.9" x2="15.6" y2="20.1" xlink:href="#linear-gradient"/><linearGradient id="linear-gradient-11" x1="13.65" y1="4.65" x2="17.35" y2="8.35" xlink:href="#linear-gradient"/><linearGradient id="linear-gradient-12" x1="14.9" y1="3.4" x2="16.1" y2="4.6" xlink:href="#linear-gradient"/><linearGradient id="linear-gradient-13" x1="14.9" y1="8.4" x2="16.1" y2="9.6" xlink:href="#linear-gradient"/></defs><title>Asset 3</title><g id="Layer_2" data-name="Layer 2"><g id="icons"><polyline class="cls-1" points="12.5 12.5 0.5 12.5 2 0.5 20 0.5 21.5 12.5 19.5 12.5"/><rect class="cls-2" x="4.5" y="3.5" width="2" height="2"/><rect class="cls-3" x="8.5" y="3.5" width="2" height="2"/><rect class="cls-4" x="4.5" y="7.5" width="2" height="2"/><polyline class="cls-5" points="11.5 16.5 2.5 16.5 2.5 21.5 10.5 21.5"/><rect class="cls-6" x="8.5" y="7.5" width="2" height="2"/><line class="cls-7" x1="6.5" y1="19.5" x2="10.5" y2="19.5"/><line class="cls-8" x1="10.5" y1="12.5" x2="10.5" y2="16.5"/><polyline class="cls-9" points="14 23.5 12.5 22 12.5 18.5 14.5 17.5 14.5 12.5 16 11.5 17.5 12.5 17.5 17.5 19 16.5 20 17.5 21 17 22.5 18 22.5 23 21.5 23.5"/><line class="cls-10" x1="14.5" y1="17.5" x2="14.5" y2="20.5"/><polyline class="cls-11" points="16.5 4.5 14.5 4.5 14 5.5 14.5 6.5 16.5 6.5 17 7.5 16.5 8.5 14.5 8.5"/><line class="cls-12" x1="15.5" y1="4.5" x2="15.5" y2="3.5"/><line class="cls-13" x1="15.5" y1="9.5" x2="15.5" y2="8.5"/></g></g></svg>