<?xml version="1.0" encoding="UTF-8"?>
<svg width="99px" height="33px" viewBox="0 0 99 33" version="1.1" xmlns="http://www.w3.org/2000/svg" xmlns:xlink="http://www.w3.org/1999/xlink">
    <g id="Symbols" stroke="none" stroke-width="1" fill="none" fill-rule="evenodd">
        <g id="logo/-light/-small">
            <path d="M9,25.5 C4.037,25.5 0,21.462 0,16.5 L0,1.5 L6,0 L6,16.5 C6,18.154 7.346,19.5 9,19.5 L9,21.5 C6.243,21.5 4,19.257 4,16.5 L4,3 L2,3.5 L2,16.5 C2,20.36 5.141,23.5 9,23.5 L9,25.5 Z" id="Fill-1" fill="#E4EAF1"></path>
            <path d="M4,26.2856 C4.634,26.6106 5.303,26.8756 6,27.0736 L6,24.9746 C5.29,24.7226 4.616,24.3916 4,23.9786 L4,26.2856 Z M0,22.8046 C0.569,23.6146 1.239,24.3486 2,24.9786 L2,22.1446 C0.751,20.5986 0,18.6366 0,16.4996 L0,22.8046 Z M6,8.0326 L6,10.1896 C6.633,9.8886 7.305,9.6766 8,9.5766 L8,7.5656 C7.315,7.6416 6.647,7.8046 6,8.0326 L6,8.0326 Z M6,15.4996 L6.184,15.4996 C6.486,14.6526 7.153,13.9866 8,13.6846 L8,11.6006 C7.256,11.7526 6.584,12.0836 6,12.5256 L6,15.4996 Z" id="Fill-3" fill="#4EA162"></path>
            <path d="M4,30 L2,29.5 L2,24.979 C1.239,24.349 0.569,23.615 0,22.805 L0,31.5 L6,33 L6,27.073 C5.303,26.875 4.634,26.611 4,26.286 L4,30 Z M9,7.5 C8.665,7.5 8.332,7.529 8,7.566 L8,9.577 C8.331,9.529 8.664,9.5 9,9.5 C12.859,9.5 16,12.64 16,16.5 C16,20.36 12.859,23.5 9,23.5 L9,25.5 C13.963,25.5 18,21.462 18,16.5 C18,11.538 13.963,7.5 9,7.5 M12,16.5 C12,18.154 10.654,19.5 9,19.5 L9,21.5 C11.757,21.5 14,19.257 14,16.5 C14,13.743 11.757,11.5 9,11.5 C8.658,11.5 8.323,11.535 8,11.601 L8,13.684 C8.314,13.572 8.647,13.5 9,13.5 C10.654,13.5 12,14.846 12,16.5" id="Fill-7" fill="#6EC177"></path>
            <polygon id="Fill-1" fill="#E4EAF1" points="25 7.2622 25 23.8332 27.667 23.8332 27.667 6.5002"></polygon>
            <path d="M31.6915,17.5161 C31.6915,18.0851 31.7945,18.6161 32.0015,19.1071 C32.2075,19.5981 32.4875,20.0211 32.8415,20.3741 C33.1945,20.7281 33.6165,21.0081 34.1085,21.2141 C34.5985,21.4211 35.1395,21.5231 35.7295,21.5231 C36.3175,21.5231 36.8635,21.4211 37.3635,21.2141 C37.8645,21.0081 38.2975,20.7231 38.6605,20.3601 C39.0235,19.9961 39.3035,19.5741 39.5005,19.0931 C39.6965,18.6111 39.7955,18.0851 39.7955,17.5161 C39.7955,16.9461 39.6965,16.4211 39.5005,15.9391 C39.3035,15.4581 39.0235,15.0401 38.6605,14.6861 C38.2975,14.3331 37.8645,14.0531 37.3635,13.8461 C36.8635,13.6401 36.3175,13.5381 35.7295,13.5381 C35.1395,13.5381 34.5985,13.6401 34.1085,13.8461 C33.6165,14.0531 33.1945,14.3331 32.8415,14.6861 C32.4875,15.0401 32.2075,15.4581 32.0015,15.9391 C31.7945,16.4211 31.6915,16.9461 31.6915,17.5161 Z M29.1575,17.6631 C29.1575,16.7591 29.3285,15.9101 29.6735,15.1141 C30.0165,14.3181 30.4825,13.6211 31.0725,13.0221 C31.6615,12.4221 32.3445,11.9461 33.1205,11.5921 C33.8965,11.2381 34.7265,11.0621 35.6105,11.0621 C36.2005,11.0621 36.7405,11.1361 37.2315,11.2831 C37.7225,11.4311 38.1445,11.6121 38.4985,11.8281 C38.8525,12.0441 39.1375,12.2701 39.3535,12.5061 C39.5695,12.7421 39.7165,12.9481 39.7955,13.1251 L39.9135,11.1661 L42.3335,11.1661 L42.3335,23.8331 L39.6665,23.8331 L39.7955,22.1421 C39.6965,22.2991 39.5405,22.4861 39.3245,22.7021 C39.1075,22.9191 38.8275,23.1201 38.4835,23.3071 C38.1405,23.4931 37.7325,23.6551 37.2615,23.7931 C36.7895,23.9301 36.2495,23.9991 35.6405,23.9991 C34.6965,23.9991 33.8285,23.8261 33.0325,23.4831 C32.2365,23.1391 31.5535,22.6771 30.9845,22.0981 C30.4145,21.5191 29.9675,20.8461 29.6435,20.0801 C29.3195,19.3131 29.1575,18.5081 29.1575,17.6631 Z" id="Fill-2" fill="#E4EAF1"></path>
            <path d="M51.3942,6.1505 C51.3942,5.6795 51.5652,5.2865 51.9102,4.9715 C52.2532,4.6575 52.6212,4.5005 53.0142,4.5005 C53.4072,4.5005 53.7702,4.6575 54.1052,4.9715 C54.4382,5.2865 54.6062,5.6795 54.6062,6.1505 C54.6062,6.6215 54.4382,7.0095 54.1052,7.3145 C53.7702,7.6185 53.4072,7.7715 53.0142,7.7715 C52.6212,7.7715 52.2532,7.6185 51.9102,7.3145 C51.5652,7.0095 51.3942,6.6215 51.3942,6.1505" id="Fill-4" fill="#E4EAF1"></path>
            <polygon id="Fill-6" fill="#E4EAF1" points="51.666 23.8333 54.333 23.8333 54.333 11.1663 51.666 11.1663"></polygon>
            <path d="M47,19.1243 L47,13.4063 L49,13.4063 L50.176,11.1663 L47,11.1663 L47,6.5003 L44.371,7.1663 L44.371,19.1243 C44.371,22.3793 46.137,24.8323 50.176,23.7043 L50.176,21.3553 L50.17,21.3423 C48.266,21.9893 47,21.6483 47,19.1243" id="Fill-8" fill="#E4EAF1"></path>
            <path d="M66.8165,17.5161 C66.8165,16.9461 66.7275,16.4211 66.5515,15.9391 C66.3735,15.4581 66.1185,15.0401 65.7855,14.6861 C65.4505,14.3331 65.0475,14.0531 64.5765,13.8461 C64.1055,13.6401 63.5745,13.5381 62.9855,13.5381 C62.3955,13.5381 61.8515,13.6401 61.3495,13.8461 C60.8485,14.0531 60.4215,14.3331 60.0675,14.6861 C59.7145,15.0401 59.4345,15.4581 59.2275,15.9391 C59.0215,16.4211 58.9185,16.9461 58.9185,17.5161 C58.9185,18.0851 59.0215,18.6161 59.2275,19.1071 C59.4345,19.5981 59.7145,20.0211 60.0675,20.3741 C60.4215,20.7281 60.8485,21.0081 61.3495,21.2141 C61.8515,21.4211 62.3955,21.5231 62.9855,21.5231 C63.5745,21.5231 64.1055,21.4211 64.5765,21.2141 C65.0475,21.0081 65.4505,20.7231 65.7855,20.3601 C66.1185,19.9961 66.3735,19.5741 66.5515,19.0931 C66.7275,18.6111 66.8165,18.0851 66.8165,17.5161 M69.5565,17.5741 C69.5565,18.4981 69.3995,19.3531 69.0855,20.1391 C68.7715,20.9241 68.3285,21.6031 67.7595,22.1721 C67.1895,22.7421 66.5065,23.1881 65.7115,23.5131 C64.9155,23.8361 64.0455,23.9991 63.1035,23.9991 C62.6115,23.9991 62.1455,23.9441 61.7035,23.8361 C61.2615,23.7281 60.8535,23.5821 60.4805,23.3951 C60.1075,23.2081 59.7825,23.0021 59.5075,22.7761 C59.2325,22.5501 59.0265,22.3191 58.8895,22.0831 C58.8895,22.1821 58.9995,22.6041 58.9995,22.7021 L58.9995,29.8331 L56.3335,29.1661 L56.3335,11.1661 L58.8305,11.1661 C58.8305,11.4021 58.9185,12.9091 58.9185,13.1841 C59.0755,12.9481 59.2865,12.7081 59.5515,12.4621 C59.8175,12.2161 60.1315,11.9911 60.4955,11.7841 C60.8585,11.5781 61.2665,11.4061 61.7185,11.2681 C62.1695,11.1311 62.6705,11.0621 63.2205,11.0621 C64.1645,11.0621 65.0225,11.2141 65.7995,11.5181 C66.5755,11.8231 67.2435,12.2561 67.8035,12.8151 C68.3635,13.3751 68.7955,14.0581 69.1005,14.8641 C69.4045,15.6701 69.5565,16.5731 69.5565,17.5741" id="Fill-9" fill="#6EC177"></path>
            <path d="M73.0288,17.5161 C73.0288,18.0851 73.1318,18.6161 73.3388,19.1071 C73.5448,19.5981 73.8248,20.0211 74.1788,20.3741 C74.5318,20.7281 74.9538,21.0081 75.4458,21.2141 C75.9358,21.4211 76.4768,21.5231 77.0668,21.5231 C77.6548,21.5231 78.2008,21.4211 78.7008,21.2141 C79.2018,21.0081 79.6348,20.7231 79.9978,20.3601 C80.3608,19.9961 80.6408,19.5741 80.8378,19.0931 C81.0338,18.6111 81.1328,18.0851 81.1328,17.5161 C81.1328,16.9461 81.0338,16.4211 80.8378,15.9391 C80.6408,15.4581 80.3608,15.0401 79.9978,14.6861 C79.6348,14.3331 79.2018,14.0531 78.7008,13.8461 C78.2008,13.6401 77.6548,13.5381 77.0668,13.5381 C76.4768,13.5381 75.9358,13.6401 75.4458,13.8461 C74.9538,14.0531 74.5318,14.3331 74.1788,14.6861 C73.8248,15.0401 73.5448,15.4581 73.3388,15.9391 C73.1318,16.4211 73.0288,16.9461 73.0288,17.5161 M70.4948,17.6631 C70.4948,16.7591 70.6658,15.9101 71.0108,15.1141 C71.3538,14.3181 71.8198,13.6211 72.4098,13.0221 C72.9988,12.4221 73.6818,11.9461 74.4578,11.5921 C75.2338,11.2381 76.0638,11.0621 76.9478,11.0621 C77.5378,11.0621 78.0778,11.1361 78.5688,11.2831 C79.0598,11.4311 79.4818,11.6121 79.8358,11.8281 C80.1898,12.0441 80.4748,12.2701 80.6908,12.5061 C80.9068,12.7421 81.0538,12.9481 81.1328,13.1251 L81.2508,11.1661 L83.6668,11.1661 L83.6668,23.8331 L80.9998,23.8331 L81.1328,22.1421 C81.0338,22.2991 80.8778,22.4861 80.6618,22.7021 C80.4448,22.9191 80.1648,23.1201 79.8208,23.3071 C79.4778,23.4931 79.0698,23.6551 78.5988,23.7931 C78.1268,23.9301 77.5868,23.9991 76.9778,23.9991 C76.0338,23.9991 75.1658,23.8261 74.3698,23.4831 C73.5738,23.1391 72.8908,22.6771 72.3218,22.0981 C71.7518,21.5191 71.3048,20.8461 70.9808,20.0801 C70.6568,19.3131 70.4948,18.5081 70.4948,17.6631" id="Fill-10" fill="#6EC177"></path>
            <polygon id="Fill-11" fill="#6EC177" points="94.8434 11.1666 91.1464 19.4356 87.4554 11.1666 84.6604 11.1666 89.7514 22.4716 89.7514 22.4716 87.0154 28.8336 90.0004 28.8336 97.6324 11.1666"></polygon>
        </g>
    </g>
</svg>