<?xml version="1.0" encoding="UTF-8"?>
<svg width="19px" height="13px" viewBox="0 0 19 13" version="1.1" xmlns="http://www.w3.org/2000/svg" xmlns:xlink="http://www.w3.org/1999/xlink">
    <!-- Generator: Sketch 48 (47235) - http://www.bohemiancoding.com/sketch -->
    <title>Artboard</title>
    <desc>Created with Sketch.</desc>
    <defs></defs>
    <g id="Page-1" stroke="none" stroke-width="1" fill="none" fill-rule="evenodd">
        <g id="Artboard" fill="#FFFFFF" fill-rule="nonzero">
            <g id="rece">
                <polygon id="Combined-Shape" points="240.878756 13.067187 231.63886 3.82729 222.398964 13.067187 213.159067 3.82729 203.919171 13.067187 194.679275 3.82729 185.439378 13.067187 176.199482 3.82729 166.959585 13.067187 157.719689 3.82729 148.479793 13.067187 139.239896 3.82729 130 13.067187 120.760104 3.82729 111.520207 13.067187 102.280311 3.82729 93.040415 13.067187 83.8005182 3.82729 74.5606218 13.067187 65.3207255 3.82729 56.0808291 13.067187 46.8409327 3.82729 37.6010364 13.067187 28.36114 3.82729 19.1212436 13.067187 9.5606218 3.506565 0 13.067187 0 0 161.546979 0 157.719689 0 260 0 260 13.067187 250.439378 3.506565"></polygon>
            </g>
        </g>
    </g>
</svg>