<?xml version="1.0" encoding="UTF-8"?>
<svg width="68px" height="68px" viewBox="0 0 68 68" version="1.1" xmlns="http://www.w3.org/2000/svg" xmlns:xlink="http://www.w3.org/1999/xlink">
    <g id="Static-QR-code" stroke="none" stroke-width="1" fill="none" fill-rule="evenodd">
        <g id="new-payment_select-copy-4" transform="translate(-154.000000, -90.000000)" fill="#6BBF70">
            <g id="Group-3" transform="translate(15.000000, -182.000000)">
                <g id="Group-5" transform="translate(139.000000, 272.000000)">
                    <path d="M34,68 C15.2223185,68 0,52.7776815 0,34 C0,15.2223185 15.2223185,0 34,0 C52.7776815,0 68,15.2223185 68,34 C68,52.7776815 52.7776815,68 34,68 Z M34,64 C50.5685425,64 64,50.5685425 64,34 C64,17.4314575 50.5685425,4 34,4 C17.4314575,4 4,17.4314575 4,34 C4,50.5685425 17.4314575,64 34,64 Z" id="Combined-Shape"></path>
                    <g id="Group-3" transform="translate(33.877260, 30.931507) rotate(45.000000) translate(-33.877260, -30.931507) translate(22.808767, 13.397260)">
                        <rect id="Rectangle-6" x="0" y="30.6849315" width="20.8087671" height="4.38356164"></rect>
                        <rect id="Rectangle-6-Copy" x="17.709589" y="0" width="4.42739726" height="35.0684932"></rect>
                    </g>
                </g>
            </g>
        </g>
    </g>
</svg>