<?xml version="1.0" encoding="utf-8"?>
<!-- Generator: Adobe Illustrator 21.1.0, SVG Export Plug-In . SVG Version: 6.00 Build 0)  -->
<svg version="1.1" id="Layer_1" xmlns="http://www.w3.org/2000/svg" xmlns:xlink="http://www.w3.org/1999/xlink" x="0px" y="0px"
	 viewBox="0 0 222 69" style="enable-background:new 0 0 222 69;" xml:space="preserve">
<style type="text/css">
	.st0{fill:#39B54A;}
	.st1{fill:#232222;}
</style>
<g>
	<path id="XMLID_230_" class="st0" d="M25.9,41.8c-0.2,0.1-0.5,0.2-0.8,0.2c-0.7,0-1.3-0.4-1.6-0.9l-0.1-0.3L18.4,30
		c-0.1-0.1-0.1-0.3-0.1-0.4c0-0.5,0.4-0.9,0.9-0.9c0.2,0,0.4,0.1,0.5,0.2l5.8,4.1c0.4,0.3,0.9,0.4,1.5,0.4c0.3,0,0.6-0.1,0.9-0.2
		l27.3-12.2c-4.9-5.8-13-9.5-22.1-9.5c-14.9,0-27,10.1-27,22.5c0,6.8,3.6,12.9,9.3,17c0.5,0.3,0.8,0.9,0.8,1.5c0,0.2,0,0.4-0.1,0.6
		c-0.5,1.7-1.2,4.4-1.2,4.5c-0.1,0.2-0.1,0.4-0.1,0.7c0,0.5,0.4,0.9,0.9,0.9c0.2,0,0.4-0.1,0.5-0.2l5.9-3.4c0.4-0.3,0.9-0.4,1.4-0.4
		c0.3,0,0.5,0,0.8,0.1c2.8,0.8,5.7,1.2,8.8,1.2c14.9,0,27-10.1,27-22.5c0-3.8-1.1-7.3-3.1-10.4l-31.1,18L25.9,41.8z"/>
	<g>
		<rect x="119.4" y="27.6" class="st1" width="20.3" height="1.8"/>
		<rect x="119.4" y="33.3" class="st1" width="20.3" height="2"/>
		<path class="st1" d="M119.9,50.1h19.3v-11h-19.3V50.1z M121.8,41h15.3v7.3h-15.3V41z"/>
		<path class="st1" d="M107.3,33.9l1.1,1.9c1.1-1.7,2.3-3.7,3.5-5.8v21.2h2V26c1.1-2.5,2.2-5.1,3-7.9l-1.8-1
			C113.2,23.4,110.6,29.1,107.3,33.9z"/>
		<path class="st1" d="M180.9,33.9l1.1,1.9c1.1-1.7,2.3-3.7,3.5-5.8v21.2h2V26c1.1-2.5,2.2-5.1,3-7.9l-1.8-1
			C186.9,23.4,184.2,29.1,180.9,33.9z"/>
		<path class="st1" d="M131.1,21.1L131.1,21.1L131.1,21.1c-0.1-0.4-0.5-1.2-0.9-2c-0.4-0.8-0.8-1.6-0.9-2l0-0.1l-1.8,1l0,0
			c0.6,1.2,1.2,2.3,1.7,3.4c0.1,0.1,0.1,0.3,0.1,0.3h-11.9v2h24.4v-2h-11.9L131.1,21.1z"/>
		<polygon class="st1" points="89.4,20.3 87.6,20.3 87.6,26.7 84.2,26.7 84.2,17.6 82.4,17.6 82.4,26.7 78.8,26.7 78.8,20.3 
			77,20.3 77,28.5 89.4,28.5 		"/>
		<rect x="77.5" y="32.1" class="st1" width="11" height="1.8"/>
		<path class="st1" d="M91,43.5L90.1,42l0-0.1l-2.8,2.4v-6.9H78v2.8c0.3,3.8-0.7,6.5-2.8,8l0,0l1,1.8l0,0.1l0.1,0
			c2.6-2.2,3.9-5.3,3.7-9.1v-1.6h5.6v4.1c-0.1,1.4-0.1,1.8-0.6,2.5l0,0l1.1,1.9l0.1,0C87,47,88.7,45.6,91,43.5L91,43.5z"/>
		<path class="st1" d="M76.1,18.2l-1.7-1c-1.8,3.6-4,6.7-6.4,9l1.1,1.9C71.9,25.3,74.3,21.9,76.1,18.2z"/>
		<path class="st1" d="M75.9,27.6l-1.8-1l0,0.1c-1.7,4.2-3.9,7.9-6.6,11l0,0l1,1.7l0,0.1l0.1-0.1c1.1-1.3,2.1-2.6,3.1-3.9v15.8h1.8
			V32.5C74.4,31,75.1,29.4,75.9,27.6L75.9,27.6z"/>
		<path class="st1" d="M94.7,23.9c0.7-2.1,1.5-4.6,1.8-6.7l-1.9,0c-1.2,5.5-3,10.3-5.3,14.1l1.1,2l0.8-1.7c0.3-0.6,0.6-1,0.8-1.4
			c0.6,4.9,1.6,8.8,3,11.7c-1.3,2.3-3.4,4.7-6.1,7.1l0,0l1,1.8l0,0.1l0.1,0c2.9-2.7,4.9-5.1,5.9-7c1.2,2.1,3.2,4.7,5.6,7.1l0.1,0.1
			l1.1-1.9l0,0l0,0c-2.5-2.4-4.5-4.9-5.7-7.1c2.1-3.8,3.3-9.3,3.8-16.4h2v-1.8L94.7,23.9L94.7,23.9z M99,25.7
			c-0.4,5.9-1.4,10.7-2.9,14.1c-1.2-3.1-2.1-7.3-2.6-12.5c0.2-0.5,0.4-1.1,0.7-1.7H99z"/>
		<path class="st1" d="M163.1,16.9h-2v4.9h-15.4v1.9h15.4v6.5h-0.3h-9.6l0,1.8c0,0,1.5,3.5,4.6,7.2c1.2,1.5,2.7,3.1,4.6,4.6
			c-3.5,2.2-7.9,4.2-13.9,5.4l1.1,2c0,0,7.2-1.5,14.3-6.2c1,0.6,5.4,4.1,13.6,6.1c0,0,0,0,0,0l0,0l0.8-1.5c0,0-2.1-0.6-5.4-1.8
			c-2.2-0.9-5.1-2.2-7.7-4c4-3,7.6-7.2,9.7-12.6l-1.6-0.9h-8.3h0v-6.5h15.5v-1.9h-15.5V16.9z M170.8,31.9c0,0-2,5.7-8.8,10.6
			c-3.3-2.5-6.6-6.1-8.8-10.6H170.8z"/>
		<path class="st1" d="M209,25.6v-8.4h-2v8.4h-16.2v2h16.2v18.2c0,2-1.2,2.9-3.5,2.9c-0.4,0-0.8,0-1.1,0v2c0.8,0,1.3,0,1.7,0
			c1.9,0,3-0.4,3.8-1.2c0.8-0.8,1.2-2,1.1-3.6V27.6h5.3v-2H209z"/>
		<path class="st1" d="M195.1,33.8c1.2,2.3,2.5,5.2,4,8.5l1.9-1.1c-1-2.1-2.4-4.9-4.2-8.4L195.1,33.8z"/>
	</g>
</g>
</svg>
