<?xml version="1.0" encoding="UTF-8"?>
<svg width="133px" height="31px" viewBox="0 0 133 31" version="1.1" xmlns="http://www.w3.org/2000/svg" xmlns:xlink="http://www.w3.org/1999/xlink">
    <g id="Artboard" stroke="none" stroke-width="1" fill="none" fill-rule="evenodd">
        <g id="alipay" transform="translate(4.000000, 1.000000)" fill-rule="nonzero">
            <path d="M23.5214497,3.01058863e-06 L4.48372781,3.01058863e-06 C3.29594218,-0.00137553334 2.15625944,0.470724284 1.31539719,1.31244572 C0.474534944,2.15416716 0.00137236885,3.29656066 0,4.48831228 L0,23.5168735 C0.00137102074,24.708149 0.474698974,25.8500099 1.31571073,26.6909066 C2.15672249,27.5318033 3.29641908,28.0027463 4.48372781,27.999988 L23.5214497,27.999988 C24.7078622,28.0013665 25.846228,27.529814 26.6861193,26.6890668 C27.5260105,25.8483195 27.9986276,24.7072474 28,23.5168735 L28,4.48831228 C28.0000008,3.29703805 27.5279897,2.15463106 26.6879494,1.31276031 C25.8479092,0.470889553 24.7087587,-0.00137577904 23.5214497,3.01058862e-06" id="Shape" fill="#1D9ED9"></path>
            <path d="M23.0308508,18.0897891 C21.9092873,17.70457 20.4034846,17.1241028 18.7211394,16.5066969 C19.7794641,14.6318194 20.5697199,12.6133487 21.0681148,10.5120544 L15.5329914,10.5120544 L15.5329914,8.4909733 L22.2831418,8.4909733 L22.2831418,7.36697783 L15.5329914,7.36697783 L15.5329914,4.0002684 L12.7654297,4.0002684 C12.6369897,3.99588098 12.5124403,4.04544182 12.4210783,4.1372931 C12.3297163,4.22914439 12.279606,4.35517872 12.2825344,4.48575001 L12.2825344,7.36697783 L5.44411272,7.36697783 L5.44411272,8.4909733 L12.2981116,8.4909733 L12.2981116,10.5120544 L6.62279284,10.5120544 L6.62279284,11.6413268 L17.5995759,11.6413268 C17.2215536,12.9983459 16.6992318,14.3094886 16.0418489,15.5515646 C12.4850389,14.3642454 8.68418493,13.3985592 6.29567016,13.9948572 C5.09496339,14.22548 4.00110839,14.8480134 3.18021612,15.7679205 C0.52688776,19.0343674 2.43250715,24 8.04032443,24 C11.3530906,24 14.5412385,22.1319512 17.0128321,19.0501984 C20.6994527,20.8443695 28,23.9313993 28,23.9313993 L28,19.53568 C28,19.53568 27.0861335,19.4618023 23.0412356,18.0897891 M7.52108209,22.1002893 C3.154254,22.1002893 1.866533,18.6174865 4.02138871,16.7072219 C4.82875554,16.1221678 5.77524844,15.7669187 6.76298827,15.6782119 C9.35919997,15.4196402 11.7580996,16.4222653 14.5879703,17.8259404 C12.5992722,20.4644274 10.0601771,22.1002893 7.52108209,22.1002893" id="Shape" fill="#FFFFFF"></path>
            <path d="M70.9142532,4.4698647 L79.080396,4.4698647 L79.080396,6 L81.9998439,6 L81.9998439,4.1795818 C82.0040317,3.98130533 81.9237889,3.78977593 81.7772019,3.64816377 C81.6306149,3.5065516 81.4300204,3.4267746 81.2206318,3.42681427 L76.5453593,3.42681427 L76.5453593,2 L73.4908479,2 L73.4908479,3.42681427 L68,3.42681427 L68,5.99507995 L70.9142532,5.99507995 L70.9142532,4.4698647 Z" id="Shape" fill="#1D9ED9"></path>
            <polygon id="Shape" fill="#1D9ED9" points="53.1051213 2 50 9.30493123 52.3827493 9.30493123 52.3827493 18 54.9811321 18 54.9811321 6.46561557 54.0431267 6.46561557 56 2"></polygon>
            <path d="M83,17 L82.0329591,13.9024264 C81.9710483,13.7026675 81.7794247,13.5645276 81.5603042,13.5616933 L79.0177472,13.5616933 L79.7566099,15.9261745 L76.7685621,15.9261745 L76.7685621,11.336603 L82.6305686,11.336603 L82.6305686,10.2472896 L76.7685621,10.2472896 L76.7685621,8.08931337 L82.6305686,8.08931337 L82.6305686,7 L68,7 L68,8.08931337 L73.8620065,8.08931337 L73.8620065,10.2472896 L68,10.2472896 L68,11.336603 L73.8620065,11.336603 L73.8620065,15.9106866 L68,15.9106866 L68,17 L83,17 Z" id="Shape" fill="#1D9ED9"></path>
            <path d="M58.0390244,8 L56,8 L57.5902439,13 L60,13 L58.5365854,8.31189084 C58.4479771,8.12248776 58.2580503,8.00105306 58.0487805,8" id="Shape" fill="#1D9ED9"></path>
            <path d="M64.9680083,2 L62.3880289,2 L62.3880289,4.69454919 L56,4.69454919 L56,5.78985259 L62.3828689,5.78985259 L62.3828689,15.472746 C62.360942,15.6913 62.1846977,15.8626033 61.9649123,15.8789853 L60.6491228,15.8789853 L60.6491228,17 L64.003096,17 C64.546698,16.9647136 64.9691602,16.5144313 64.9680083,15.9715461 L64.9680083,5.78985259 L66,5.78985259 L66,4.69454919 L64.9680083,4.69454919 L64.9680083,2 Z" id="Shape" fill="#1D9ED9"></path>
            <path d="M48.9947862,16.7275715 C46.9825036,16.0082285 45.0499462,15.0795732 43.2283629,13.9566218 C45.3816475,12.3476832 47.2690302,10.165626 48.0250261,7.24745317 L42.9989572,7.24745317 L42.9989572,5.42819586 L48.822732,5.42819586 L48.822732,4.2977325 L42.9989572,4.2977325 L42.9989572,2 L40.3920751,2 C40.1041268,2 39.8706986,2.2354073 39.8706986,2.52579691 L39.8706986,4.28721656 L34.0834202,4.28721656 L34.0834202,5.41767992 L39.8706986,5.41767992 L39.8706986,7.23693723 L35.0010428,7.23693723 L35.0010428,8.36740059 L44.729927,8.36740059 C44.729927,8.36740059 44.2085506,10.4705882 41.5234619,12.7683207 C39.1303441,10.9438055 38.3326382,9.49260598 38.3326382,9.49260598 L35.725756,9.49260598 C36.7853337,11.270181 38.2070032,12.8006804 39.8967675,13.9829116 C38.0686267,15.1530528 36.082554,16.0509097 34,16.6487019 L34,18 C36.6514159,17.4202717 39.1980087,16.4305986 41.5495308,15.0660532 C43.8748935,16.4114663 46.3859028,17.4002855 49,18 L48.9947862,16.7275715 Z" id="Shape" fill="#1D9ED9"></path>
            <path d="M40.2677596,25.5932746 L40.7213115,27 L42,27 L39.4863388,20 L38.5081967,20 L36,27 L37.2786885,27 L37.7540984,25.5932746 L40.2677596,25.5932746 Z M39.0327869,21.8046437 L39.9508197,24.7077662 L38.0327869,24.7077662 L39.0327869,21.8046437 Z" id="Shape" fill="#1D9ED9"></path>
            <polygon id="Shape" fill="#1D9ED9" points="46 20 46 27 50 27 50 26.0472378 47.1904762 26.0472378 47.1904762 20"></polygon>
            <rect id="Rectangle-path" fill="#1D9ED9" x="54" y="20" width="1" height="7"></rect>
            <path d="M62.7284515,20.0028119 L60,20.0028119 L60,27 L61.263172,27 L61.263172,24.3109285 L62.7284515,24.3109285 C63.5259184,24.3515248 64.2808501,23.9500732 64.6917929,23.2668784 C65.1027357,22.5836836 65.1027357,21.7300568 64.6917929,21.046862 C64.2808501,20.3636672 63.5259184,19.9622156 62.7284515,20.0028119 M62.6554683,23.3641513 L61.263172,23.3641513 L61.263172,20.9551914 L62.6554683,20.9551914 C62.9647632,20.9624199 63.2581168,21.0936065 63.4693628,21.3191619 C63.6806087,21.5447174 63.7919552,21.8456446 63.7782878,22.1540691 C63.7984956,22.4636343 63.6891815,22.7677052 63.4763821,22.9938576 C63.2635827,23.22001 62.966346,23.3480006 62.6554683,23.3473446" id="Shape" fill="#1D9ED9"></path>
            <path d="M71.2709091,25.5932746 L71.7236364,27 L73,27 L70.4909091,20 L69.5145455,20 L67,27 L68.2709091,27 L68.7454545,25.5932746 L71.2709091,25.5932746 Z M70.0381818,21.8046437 L70.9818182,24.7077662 L69.0618182,24.7077662 L70.0381818,21.8046437 Z" id="Shape" fill="#1D9ED9"></path>
            <polygon id="Shape" fill="#1D9ED9" points="79.7589377 20 78.5076609 22.9815853 77.2410623 20 76 20 77.9305414 24.1248999 77.9305414 27 79.0694586 27 79.0694586 24.1248999 79.0745659 24.1080865 81 20"></polygon>
            <polygon id="Shape" fill="#1D9ED9" points="87.2125 2.27252747 87.2125 4 86.78125 4 86.78125 2.27252747 86 2.27252747 86 2 88 2 88 2.27252747"></polygon>
            <polygon id="Shape" fill="#1D9ED9" points="89.6567164 4 89.6567164 2.66373626 89.1343284 3.63956044 88.880597 3.63956044 88.3432836 2.66373626 88.3432836 4 88 4 88 2 88.3432836 2 89.0049751 3.24395604 89.6567164 2 90 2 90 4"></polygon>
        </g>
    </g>
</svg>
