<?xml version="1.0" encoding="utf-8"?>
<svg version="1.1" id="Layer_1" xmlns="http://www.w3.org/2000/svg" xmlns:xlink="http://www.w3.org/1999/xlink" x="0px" y="0px"
	 viewBox="0 0 133 37" style="enable-background:new 0 0 133 37;" xml:space="preserve">
<style type="text/css">
	.st0{fill:#374153;}
	.st1{fill:#3FA969;}
	.st2{fill:#373637;}
	.st3{fill:#1D9ED9;}
	.st4{fill:#39B54A;}
	.st5{fill:#424547;}
	.st6{fill:#3BB54A;}
	.st7{fill:#434547;}
	.st8{fill:#293E50;}
	.st9{fill:#9D2A30;}
	.st10{opacity:0.5;fill:url(#XMLID_232_);}
	.st11{opacity:0.5;fill:url(#XMLID_233_);}
	.st12{opacity:0.5;fill:url(#XMLID_234_);}
	.st13{fill:#39B54A;}
	.st14{fill:#232222;}
	.st15{fill:#ED2024;}
	.st16{opacity:0.5;fill:url(#XMLID_235_);}
	.st17{fill:#DEE5EC;}
	.st18{fill:#C44A27;}
	.st19{fill:#F58220;}
	.st20{fill:#034EA2;}
	.st21{opacity:0.5;fill:url(#XMLID_236_);}
	.st22{opacity:0.5;fill:url(#XMLID_237_);}
	.st23{opacity:0.5;fill:url(#XMLID_238_);}
	.st24{fill-rule:evenodd;clip-rule:evenodd;fill:#39B54A;}
</style>
<g>
	<path id="XMLID_230_" class="st13" d="M12.7,22.4c-0.2,0.1-0.3,0.1-0.5,0.1c-0.4,0-0.8-0.2-1-0.6l-0.1-0.2l-3-6.7
		c0-0.1-0.1-0.2-0.1-0.2c0-0.3,0.2-0.6,0.6-0.6c0.1,0,0.2,0,0.3,0.1l3.6,2.6c0.3,0.2,0.6,0.3,0.9,0.3c0.2,0,0.4,0,0.6-0.1l16.9-7.5
		c-3-3.6-8-5.9-13.7-5.9C8,3.7,0.5,10,0.5,17.7c0,4.2,2.3,8,5.8,10.5c0.3,0.2,0.5,0.5,0.5,0.9c0,0.1,0,0.2-0.1,0.4
		C6.5,30.5,6,32.2,6,32.3c0,0.1-0.1,0.3-0.1,0.4c0,0.3,0.2,0.6,0.6,0.6c0.1,0,0.2,0,0.3-0.1l3.7-2.1c0.3-0.2,0.6-0.3,0.9-0.3
		c0.2,0,0.3,0,0.5,0.1c1.7,0.5,3.6,0.8,5.5,0.8c9.2,0,16.7-6.2,16.7-13.9c0-2.3-0.7-4.5-1.9-6.5L12.8,22.3L12.7,22.4z"/>
	<g>
		<rect x="74.3" y="13.7" class="st4" width="12.5" height="1.1"/>
		<rect x="74.3" y="17.2" class="st4" width="12.5" height="1.2"/>
		<path class="st4" d="M74.6,27.6h11.9v-6.8H74.6V27.6z M75.8,21.9h9.5v4.5h-9.5V21.9z"/>
		<path class="st4" d="M66.8,17.6l0.7,1.2c0.7-1,1.5-2.3,2.2-3.6v13.1h1.2V12.6c0.7-1.5,1.3-3.2,1.9-4.9l-1.1-0.6
			C70.4,11,68.8,14.6,66.8,17.6z"/>
		<path class="st4" d="M112.4,17.6l0.7,1.2c0.7-1,1.5-2.3,2.2-3.6v13.1h1.2V12.6c0.7-1.5,1.3-3.2,1.9-4.9l-1.1-0.6
			C116,11,114.4,14.6,112.4,17.6z"/>
		<path class="st4" d="M81.5,9.6L81.5,9.6L81.5,9.6c-0.1-0.3-0.3-0.7-0.6-1.3c-0.2-0.5-0.5-1-0.6-1.2l0,0l-1.1,0.6l0,0
			c0.4,0.8,0.7,1.4,1.1,2.1c0,0.1,0.1,0.2,0.1,0.2H73v1.2h15.1v-1.2h-7.4L81.5,9.6z"/>
		<polygon class="st4" points="55.7,9.1 54.6,9.1 54.6,13.1 52.5,13.1 52.5,7.5 51.4,7.5 51.4,13.1 49.2,13.1 49.2,9.1 48,9.1
			48,14.2 55.7,14.2 		"/>
		<rect x="48.4" y="16.4" class="st4" width="6.8" height="1.1"/>
		<path class="st4" d="M56.7,23.5l-0.5-0.9l0,0L54.4,24v-4.2h-5.8v1.7c0.2,2.3-0.4,4-1.7,5l0,0l0.6,1.1l0,0l0,0
			c1.6-1.3,2.4-3.2,2.3-5.6v-1h3.4v2.5c0,0.9-0.1,1.1-0.4,1.6l0,0l0.7,1.2l0,0C54.2,25.7,55.3,24.8,56.7,23.5L56.7,23.5z"/>
		<path class="st4" d="M47.5,7.8l-1-0.6c-1.1,2.2-2.4,4.1-4,5.5l0.7,1.2C44.9,12.2,46.4,10.1,47.5,7.8z"/>
		<path class="st4" d="M47.4,13.6L46.3,13l0,0c-1,2.6-2.4,4.9-4.1,6.8l0,0l0.6,1.1l0,0l0,0c0.7-0.8,1.3-1.6,1.9-2.4v9.8h1.1V16.6
			C46.4,15.7,46.9,14.7,47.4,13.6L47.4,13.6z"/>
		<path class="st4" d="M59,11.3c0.4-1.3,0.9-2.8,1.1-4.1l-1.2,0c-0.7,3.4-1.8,6.4-3.3,8.7l0.7,1.2l0.5-1c0.2-0.3,0.4-0.6,0.5-0.9
			c0.4,3,1,5.5,1.8,7.3c-0.8,1.4-2.1,2.9-3.8,4.4l0,0l0.6,1.1l0,0l0,0c1.8-1.7,3-3.1,3.7-4.3c0.7,1.3,2,2.9,3.5,4.4l0,0l0.7-1.2l0,0
			l0,0c-1.6-1.5-2.8-3-3.5-4.4c1.3-2.3,2.1-5.7,2.4-10.2H64v-1.1L59,11.3L59,11.3z M61.6,12.5c-0.2,3.7-0.8,6.6-1.8,8.7
			c-0.7-1.9-1.3-4.5-1.6-7.7c0.1-0.3,0.3-0.7,0.4-1H61.6z"/>
		<path class="st4" d="M101.3,7h-1.2v3h-9.5v1.2h9.5v4h-0.2h-6l0,1.1c0,0,0.9,2.1,2.9,4.4c0.8,0.9,1.7,1.9,2.8,2.9
			C97.5,25,94.8,26.2,91,27l0.7,1.2c0,0,4.4-0.9,8.9-3.8c0.6,0.4,3.3,2.6,8.4,3.8c0,0,0,0,0,0l0,0l0.5-0.9c0,0-1.3-0.3-3.3-1.1
			c-1.4-0.5-3.1-1.3-4.8-2.5c2.5-1.8,4.7-4.4,6-7.8l-1-0.6h-5.1h0v-4h9.6v-1.2h-9.6V7z M106.1,16.3c0,0-1.2,3.5-5.5,6.6
			c-2-1.5-4.1-3.8-5.4-6.6H106.1z"/>
		<path class="st4" d="M129.7,12.4V7.2h-1.2v5.2h-10v1.2h10v11.3c0,1.2-0.8,1.8-2.2,1.8c-0.2,0-0.5,0-0.7,0v1.2c0.5,0,0.8,0,1.1,0
			c1.2,0,1.8-0.3,2.3-0.8c0.5-0.5,0.7-1.3,0.7-2.2V13.6h3.3v-1.2H129.7z"/>
		<path class="st4" d="M121.1,17.4c0.7,1.4,1.6,3.2,2.5,5.3l1.2-0.7c-0.6-1.3-1.5-3.1-2.6-5.2L121.1,17.4z"/>
	</g>
</g>
</svg>
