<?xml version="1.0" encoding="UTF-8"?>
<svg width="136px" height="27px" viewBox="0 0 136 27" version="1.1" xmlns="http://www.w3.org/2000/svg" xmlns:xlink="http://www.w3.org/1999/xlink">
    <!-- Generator: Sketch 47.1 (45422) - http://www.bohemiancoding.com/sketch -->
    <title>Icon/wechat</title>
    <desc>Created with Sketch.</desc>
    <defs></defs>
    <g id="Symbols" stroke="none" stroke-width="1" fill="none" fill-rule="evenodd">
        <g id="Icon/wechat" fill-rule="nonzero" fill="#FFFFFF">
            <g id="wechat">
                <g id="Group" transform="translate(36.000000, 6.000000)">
                    <path d="M14.8806926,8.74836405 L14.5642294,9.83471355 C14.1874874,11.2121424 13.8559545,12.4336358 13.59977,13.6239422 C13.3486087,12.1685457 12.9216345,10.4688506 12.4645209,8.70158345 L10.2894641,0.145931363 L9.14919178,0.145931363 L6.73804332,8.76915543 C6.18548846,10.6299838 5.70325877,12.2880962 5.44707425,13.6395357 C5.20093617,12.4700207 4.85433358,11.0406135 4.48763809,9.55402995 L2.15183801,0.145931363 L0.901054746,0.145931363 L4.819171,15.5107598 L5.93432716,15.5107598 L8.44594015,6.70561115 C9.04872726,4.62647334 9.45058534,3.22825317 9.68165373,1.9599791 C9.96002039,3.55840215 10.318832,5.14069971 10.7566241,6.70041331 L12.9718667,15.5055619 L14.1071158,15.5055619 L18.5828101,0.145931363 L17.3270037,0.145931363 L14.8806926,8.74836405 Z" id="Shape"></path>
                    <path d="M26.7075445,13.83925 C25.8114292,14.2466 24.8329636,14.4360577 23.85095,14.3923647 C21.3255548,14.3923647 19.8713827,12.6964942 19.8403327,9.74307051 L27.7580674,9.74307051 L27.7580674,9.67001762 C27.800052,9.44654264 27.8156855,9.21884611 27.8046423,8.99166942 C27.8037151,7.91172458 27.5332048,6.84938899 27.0180439,5.90257609 C26.3013518,4.65283012 24.9493828,3.91475434 23.5197506,3.992765 C20.5700063,3.992765 18.5828101,6.39307402 18.5828101,9.96222916 C18.5828101,13.2704811 20.6528061,15.5038121 23.6957003,15.5038121 C24.8782444,15.5561308 26.0552311,15.3123204 27.1215437,14.7941556 L27.1836435,14.7576291 L26.7075445,13.83925 Z M23.4266008,5.07812212 C24.2197115,5.04166564 24.9927211,5.3360802 25.5638717,5.89213996 C26.2231498,6.66955115 26.5718142,7.66658635 26.5419448,8.68902177 L19.9231326,8.68902177 C20.1611821,6.99836933 21.2065301,5.07812212 23.4266008,5.07812212 L23.4266008,5.07812212 Z" id="Shape"></path>
                    <path d="M37.028122,14.4469755 C33.0538734,14.4469755 30.6807984,12.020759 30.6807984,7.96025109 C30.6807984,3.74841994 33.1216755,1.23140946 37.2106662,1.23140946 C38.2482489,1.2115302 39.2781226,1.40763792 40.2304693,1.80643791 L40.8198263,0.848057168 L40.7728864,0.822836622 C39.6457734,0.319726516 38.4084423,0.0911317904 37.1689418,0.157014212 C32.4749474,0.157014212 29.3456178,3.2843619 29.3456178,7.94007466 C29.3456178,13.5339917 33.2833575,15.5062384 36.6473869,15.5062384 C38.077888,15.5486478 39.5010302,15.2923003 40.8198263,14.7546661 L40.8771974,14.7244015 L40.3243492,13.8013295 C39.2815763,14.2262053 38.1595866,14.4391064 37.028122,14.426799" id="Shape"></path>
                    <path d="M47.1346437,4.44746954 C46.3682993,4.44258297 45.6169516,4.66286343 44.9713551,5.08170347 C44.4237637,5.41023342 43.9660715,5.87271667 43.6401006,6.42689318 L43.6401006,0.145931363 L42.4147413,0.145931363 L42.4147413,15.4903006 L43.6401006,15.4903006 L43.6401006,8.92802536 C43.6236608,8.58221733 43.6663113,8.23613057 43.7661664,7.90506741 C44.2175812,6.55304632 45.4458808,5.62474635 46.8522564,5.57272329 C49.2828044,5.57272329 49.6458738,7.80788641 49.6458738,9.15307611 L49.6458738,15.5107598 L50.871233,15.5107598 L50.871233,9.01497679 C50.871233,4.6674055 47.7599299,4.44746954 47.1346437,4.44746954" id="Shape"></path>
                    <path d="M67.137102,14.363433 C66.8235921,14.4237914 66.5042864,14.4520772 66.1845495,14.4478152 C65.175051,14.4478152 64.7091286,13.7975761 64.7091286,12.4077521 L64.7091286,5.7862333 L67.7842165,5.7862333 L67.7842165,4.79350185 L64.7091286,4.79350185 L64.7091286,2.45065562 L63.4511381,2.45065562 L63.4511381,4.76868356 L61.6340407,4.76868356 L61.6340407,5.76141501 L63.4511381,5.76141501 L63.4511381,12.2141694 C63.4511381,13.4054472 63.6789224,14.234378 64.1396679,14.740671 C64.6202941,15.2719596 65.3338289,15.5551794 66.0654805,15.5050742 C66.5969626,15.5200359 67.1258736,15.4287538 67.6185552,15.2370367 L67.6806782,15.2370367 L67.137102,14.363433 Z" id="Shape"></path>
                    <path d="M75.6855641,0.176846511 C74.6085041,0.177782126 73.5336008,0.274332579 72.4732117,0.46538789 L72.3968483,0.46538789 L72.3968483,15.5107598 L73.6390258,15.5107598 L73.6390258,9.10617167 C74.202379,9.22906884 74.7788403,9.27927587 75.3546562,9.25559489 C77.2637404,9.25559489 78.8368258,8.64759698 79.7888225,7.55010924 C80.5250338,6.69786363 80.9047839,5.58916867 80.8477279,4.45859447 C80.8917201,3.33122533 80.4648772,2.23717278 79.671732,1.44436757 C78.8113714,0.59935353 77.4317398,0.145931363 75.6804732,0.145931363 M79.6055504,4.56679748 C79.6055504,6.84936589 78.078283,8.17356472 75.4361104,8.17356472 C74.8292618,8.19482202 74.2224999,8.12890086 73.6339349,7.97776878 L73.6339349,1.40829989 C74.2956886,1.28775164 74.9674452,1.2325322 75.6397461,1.24341911 C78.1851918,1.24341911 79.6055504,2.46456744 79.6055504,4.58740758" id="Shape"></path>
                    <path d="M98.0184609,4.75537989 L95.4921427,11.570263 C95.2597807,12.1820479 95.0620259,12.7838036 94.8840465,13.3153545 C94.8395517,13.4407202 94.8000007,13.566086 94.7653936,13.6814225 C94.557751,13.0044474 94.3056136,12.2522528 94.0683078,11.6304386 L91.3590664,4.81054082 L91.3590664,4.75537989 L90.0786037,4.75537989 L93.9397671,14.5489536 C94.0035591,14.6814995 94.0453205,14.8238261 94.0633639,14.9701826 C94.0463428,15.1167547 94.0045313,15.2592521 93.9397671,15.3914116 C93.5417516,16.3607695 92.9625592,17.2428441 92.2341316,17.9889903 C91.7247155,18.4828786 91.1229023,18.8682318 90.4642257,19.1222968 L90.3950115,19.1473699 L90.9487251,20.1202083 C91.578667,19.8644702 92.1618862,19.5034282 92.6741361,19.052092 C94.0089813,17.8736537 94.8692149,16.0433136 96.1694531,12.6584378 L99.3038674,4.75537989 L98.0184609,4.75537989 Z" id="Shape"></path>
                    <path d="M60.8503529,15.1608802 C60.7362138,14.3129846 60.6863383,13.4569353 60.7011951,12.6007742 L60.7011951,8.35131106 C60.7011951,5.49921738 59.4333538,3.98713847 57.0368851,3.98713847 C55.9442558,3.99103024 54.8745653,4.31618551 53.9493185,4.92567021 L53.9493185,4.92567021 L54.4465112,5.82248942 C55.1866,5.32099053 56.0514026,5.05979773 56.9324746,5.07166403 L56.9672781,5.07166403 C57.6208986,5.02921908 58.2630405,5.26623104 58.7472279,5.72863625 C59.2444206,6.25004277 59.488045,7.04779475 59.488045,8.16881877 L59.488045,8.36695325 C56.9523623,8.36695325 55.1574967,8.88835977 54.1233359,9.96245721 C53.4971356,10.6145582 53.1553374,11.508782 53.1786699,12.4339241 C53.1786699,13.9147186 54.1730552,15.5102226 56.3060118,15.5102226 C57.5953929,15.5316962 58.8175347,14.9082899 59.5974274,13.8312936 L59.7366413,15.2808037 L60.8652687,15.2808037 L60.8503529,15.1608802 Z M59.5079327,11.6987409 C59.5098867,11.9122428 59.4744982,12.1243112 59.4035222,12.3244288 C58.9628522,13.6386433 57.7466391,14.4889394 56.4203661,14.4100548 C55.8715252,14.4394312 55.3374562,14.2180611 54.9560785,13.8031117 C54.5747009,13.3881624 54.3834063,12.8203171 54.4315954,12.2462178 C54.4111078,11.6169569 54.6438687,11.0076614 55.072974,10.5672888 C55.8088191,9.82167745 57.1611832,9.43583662 59.0952628,9.43583662 L59.488045,9.43583662 L59.5079327,11.6987409 Z" id="Shape"></path>
                    <path d="M89.3098317,15.1560539 C89.1956926,14.3085245 89.1458171,13.452845 89.1606739,12.5970537 L89.1606739,8.34942603 C89.1606739,5.49856427 87.8978045,3.98713847 85.4963639,3.98713847 C84.4465539,3.98933739 83.4164704,4.28627776 82.5132078,4.84708763 L83.0104005,5.74351948 C83.725711,5.29715849 84.544634,5.06631895 85.3770376,5.0764074 L85.4118411,5.0764074 C86.0654616,5.03398078 86.7076035,5.27089038 87.1917909,5.73309586 C87.6889836,6.25427717 87.932608,7.05168457 87.932608,8.17222439 L87.932608,8.37027329 C85.4068692,8.37027329 83.6020598,8.8914546 82.567899,9.9650881 C81.9416987,10.6169074 81.5999005,11.510745 81.6232329,12.4354875 C81.6232329,13.9156424 82.6176182,15.5104572 84.7505749,15.5104572 C86.0371705,15.5265234 87.2547645,14.90189 88.0320466,13.8270416 L88.1712605,15.2759256 L89.2998879,15.2759256 L89.3098317,15.1560539 Z M87.9475238,11.69541 C87.9493657,11.90881 87.9139807,12.1207657 87.8431133,12.3208276 C87.4024433,13.6344746 86.1862302,14.4844033 84.8599572,14.4055529 C84.3111163,14.4349165 83.7770473,14.213642 83.3956696,13.7988719 C83.014292,13.3841018 82.8229975,12.8165018 82.8711865,12.2426504 C82.866518,11.6119429 83.1156066,11.0083704 83.5573124,10.580082 C84.2931576,9.83479277 85.6455217,9.4491186 87.5796012,9.4491186 L87.9723834,9.4491186 L87.9475238,11.69541 Z" id="Shape"></path>
                </g>
                <path d="M11.1728194,17.0118904 C11.0295761,17.082737 10.8716046,17.1193138 10.7115562,17.1186915 C10.3438938,17.1201399 10.0036104,16.9260774 9.81978068,16.6101148 L9.73777834,16.452456 L6.93944835,10.3495357 C6.90866251,10.2824909 6.89292405,10.2096091 6.89332203,10.1359335 C6.89332203,9.85505432 7.12278266,9.62735678 7.40583668,9.62735678 C7.51672959,9.62735678 7.62463115,9.66304761 7.71334547,9.72907212 L11.0139398,12.0583534 C11.4190472,12.3187269 11.9238554,12.3752228 12.3772288,12.2109264 L27.9012975,5.37565564 C25.1132178,2.12585057 20.5415871,0 15.3754395,0 C6.87794659,0 0,5.68588742 0,12.7144173 C0,16.538914 2.0500586,19.987064 5.30452662,22.3112595 C5.57475388,22.5021806 5.73516613,22.8110651 5.73503893,23.1402395 C5.73260872,23.2505139 5.71537305,23.3599747 5.68378746,23.4657286 L4.99189268,26.008612 C4.94932533,26.1285622 4.92178453,26.2532516 4.90989034,26.379873 C4.90989034,26.6607522 5.13935096,26.8884497 5.42240499,26.8884497 C5.52805278,26.8854228 5.63085156,26.8537649 5.71966349,26.7969059 L9.08175958,24.8694002 C9.32731591,24.7202696 9.60879109,24.6394623 9.89665788,24.635455 C10.0494711,24.6351304 10.2014794,24.6574136 10.3476708,24.7015699 C11.9824197,25.1664227 13.6748971,25.4009668 15.3754395,25.39832 C23.8575569,25.39832 30.750879,19.7124326 30.750879,12.6839027 C30.729331,10.5993153 30.1107493,8.56380268 28.967328,6.81492767 L11.2753223,16.9457754 L11.1728194,17.0118904 Z" id="Shape"></path>
            </g>
        </g>
    </g>
</svg>